<svg width="545" height="48" viewBox="0 0 545 48" fill="none" xmlns="http://www.w3.org/2000/svg">
<path d="M2.52 11.582H7.7V12.464H2.52V11.582ZM2.632 16.104H8.526V17H1.596V7.2H8.316V8.096H2.632V16.104ZM14.6432 9.58C15.2406 9.58 15.7632 9.69667 16.2112 9.93C16.6686 10.154 17.0232 10.4993 17.2752 10.966C17.5366 11.4327 17.6672 12.0207 17.6672 12.73V17H16.6732V12.828C16.6732 12.0533 16.4772 11.47 16.0852 11.078C15.7026 10.6767 15.1612 10.476 14.4612 10.476C13.9386 10.476 13.4812 10.5833 13.0892 10.798C12.7066 11.0033 12.4079 11.3067 12.1932 11.708C11.9879 12.1 11.8852 12.576 11.8852 13.136V17H10.8912V9.65H11.8432V11.666L11.6892 11.288C11.9226 10.756 12.2959 10.3407 12.8092 10.042C13.3226 9.734 13.9339 9.58 14.6432 9.58ZM20.4922 17V9.65H21.4862V17H20.4922ZM20.9962 8.026C20.7908 8.026 20.6182 7.956 20.4782 7.816C20.3382 7.676 20.2682 7.508 20.2682 7.312C20.2682 7.116 20.3382 6.95267 20.4782 6.822C20.6182 6.682 20.7908 6.612 20.9962 6.612C21.2015 6.612 21.3742 6.67733 21.5142 6.808C21.6542 6.93867 21.7242 7.102 21.7242 7.298C21.7242 7.50333 21.6542 7.676 21.5142 7.816C21.3835 7.956 21.2108 8.026 20.9962 8.026ZM33.5759 9.58C34.1733 9.58 34.6913 9.69667 35.1299 9.93C35.5779 10.154 35.9233 10.4993 36.1659 10.966C36.4179 11.4327 36.5439 12.0207 36.5439 12.73V17H35.5499V12.828C35.5499 12.0533 35.3633 11.47 34.9899 11.078C34.6259 10.6767 34.1079 10.476 33.4359 10.476C32.9319 10.476 32.4933 10.5833 32.1199 10.798C31.7559 11.0033 31.4713 11.3067 31.2659 11.708C31.0699 12.1 30.9719 12.576 30.9719 13.136V17H29.9779V12.828C29.9779 12.0533 29.7913 11.47 29.4179 11.078C29.0446 10.6767 28.5219 10.476 27.8499 10.476C27.3553 10.476 26.9213 10.5833 26.5479 10.798C26.1746 11.0033 25.8853 11.3067 25.6799 11.708C25.4839 12.1 25.3859 12.576 25.3859 13.136V17H24.3919V9.65H25.3439V11.638L25.1899 11.288C25.4139 10.756 25.7733 10.3407 26.2679 10.042C26.7719 9.734 27.3646 9.58 28.0459 9.58C28.7646 9.58 29.3759 9.762 29.8799 10.126C30.3839 10.4807 30.7106 11.0173 30.8599 11.736L30.4679 11.582C30.6826 10.9847 31.0606 10.504 31.6019 10.14C32.1526 9.76667 32.8106 9.58 33.5759 9.58ZM45.5077 17.07C44.817 17.07 44.285 16.8833 43.9117 16.51C43.5383 16.1367 43.3517 15.6093 43.3517 14.928V8.026H44.3457V14.872C44.3457 15.3013 44.453 15.6327 44.6677 15.866C44.8917 16.0993 45.209 16.216 45.6197 16.216C46.0583 16.216 46.4223 16.09 46.7117 15.838L47.0617 16.552C46.8657 16.7293 46.6277 16.86 46.3477 16.944C46.077 17.028 45.797 17.07 45.5077 17.07ZM42.0357 10.476V9.65H46.5857V10.476H42.0357ZM51.8734 17.07C51.1081 17.07 50.4361 16.9113 49.8574 16.594C49.2787 16.2673 48.8261 15.824 48.4994 15.264C48.1727 14.6947 48.0094 14.046 48.0094 13.318C48.0094 12.59 48.1634 11.946 48.4714 11.386C48.7887 10.826 49.2181 10.3873 49.7594 10.07C50.3101 9.74333 50.9261 9.58 51.6074 9.58C52.2981 9.58 52.9094 9.73867 53.4414 10.056C53.9827 10.364 54.4074 10.8027 54.7154 11.372C55.0234 11.932 55.1774 12.5807 55.1774 13.318C55.1774 13.3647 55.1727 13.416 55.1634 13.472C55.1634 13.5187 55.1634 13.57 55.1634 13.626H48.7654V12.884H54.6314L54.2394 13.178C54.2394 12.646 54.1227 12.1747 53.8894 11.764C53.6654 11.344 53.3574 11.0173 52.9654 10.784C52.5734 10.5507 52.1207 10.434 51.6074 10.434C51.1034 10.434 50.6507 10.5507 50.2494 10.784C49.8481 11.0173 49.5354 11.344 49.3114 11.764C49.0874 12.184 48.9754 12.6647 48.9754 13.206V13.36C48.9754 13.92 49.0967 14.4147 49.3394 14.844C49.5914 15.264 49.9367 15.5953 50.3754 15.838C50.8234 16.0713 51.3321 16.188 51.9014 16.188C52.3494 16.188 52.7647 16.1087 53.1474 15.95C53.5394 15.7913 53.8754 15.5487 54.1554 15.222L54.7154 15.866C54.3887 16.258 53.9781 16.5567 53.4834 16.762C52.9981 16.9673 52.4614 17.07 51.8734 17.07ZM66.5246 9.58C67.1219 9.58 67.6399 9.69667 68.0786 9.93C68.5266 10.154 68.8719 10.4993 69.1146 10.966C69.3666 11.4327 69.4926 12.0207 69.4926 12.73V17H68.4986V12.828C68.4986 12.0533 68.3119 11.47 67.9386 11.078C67.5746 10.6767 67.0566 10.476 66.3846 10.476C65.8806 10.476 65.4419 10.5833 65.0686 10.798C64.7046 11.0033 64.4199 11.3067 64.2146 11.708C64.0186 12.1 63.9206 12.576 63.9206 13.136V17H62.9266V12.828C62.9266 12.0533 62.7399 11.47 62.3666 11.078C61.9933 10.6767 61.4706 10.476 60.7986 10.476C60.3039 10.476 59.8699 10.5833 59.4966 10.798C59.1233 11.0033 58.8339 11.3067 58.6286 11.708C58.4326 12.1 58.3346 12.576 58.3346 13.136V17H57.3406V9.65H58.2926V11.638L58.1386 11.288C58.3626 10.756 58.7219 10.3407 59.2166 10.042C59.7206 9.734 60.3133 9.58 60.9946 9.58C61.7133 9.58 62.3246 9.762 62.8286 10.126C63.3326 10.4807 63.6593 11.0173 63.8086 11.736L63.4166 11.582C63.6313 10.9847 64.0093 10.504 64.5506 10.14C65.1013 9.76667 65.7593 9.58 66.5246 9.58ZM76.1223 17.07C75.4876 17.07 74.9136 16.9253 74.4003 16.636C73.8869 16.3373 73.4763 15.9127 73.1683 15.362C72.8696 14.802 72.7203 14.1207 72.7203 13.318C72.7203 12.5153 72.8696 11.8387 73.1683 11.288C73.4669 10.728 73.8729 10.3033 74.3863 10.014C74.8996 9.72467 75.4783 9.58 76.1223 9.58C76.8223 9.58 77.4476 9.73867 77.9983 10.056C78.5583 10.364 78.9969 10.8027 79.3143 11.372C79.6316 11.932 79.7903 12.5807 79.7903 13.318C79.7903 14.0647 79.6316 14.718 79.3143 15.278C78.9969 15.838 78.5583 16.2767 77.9983 16.594C77.4476 16.9113 76.8223 17.07 76.1223 17.07ZM72.3283 19.716V9.65H73.2803V11.862L73.1823 13.332L73.3223 14.816V19.716H72.3283ZM76.0523 16.188C76.5749 16.188 77.0416 16.0713 77.4523 15.838C77.8629 15.5953 78.1896 15.2593 78.4323 14.83C78.6749 14.3913 78.7963 13.8873 78.7963 13.318C78.7963 12.7487 78.6749 12.2493 78.4323 11.82C78.1896 11.3907 77.8629 11.0547 77.4523 10.812C77.0416 10.5693 76.5749 10.448 76.0523 10.448C75.5296 10.448 75.0583 10.5693 74.6383 10.812C74.2276 11.0547 73.9009 11.3907 73.6583 11.82C73.4249 12.2493 73.3083 12.7487 73.3083 13.318C73.3083 13.8873 73.4249 14.3913 73.6583 14.83C73.9009 15.2593 74.2276 15.5953 74.6383 15.838C75.0583 16.0713 75.5296 16.188 76.0523 16.188ZM84.9525 17.07C84.2432 17.07 83.6039 16.9113 83.0345 16.594C82.4745 16.2673 82.0312 15.824 81.7045 15.264C81.3779 14.6947 81.2145 14.046 81.2145 13.318C81.2145 12.5807 81.3779 11.932 81.7045 11.372C82.0312 10.812 82.4745 10.3733 83.0345 10.056C83.5945 9.73867 84.2339 9.58 84.9525 9.58C85.6805 9.58 86.3245 9.73867 86.8845 10.056C87.4539 10.3733 87.8972 10.812 88.2145 11.372C88.5412 11.932 88.7045 12.5807 88.7045 13.318C88.7045 14.046 88.5412 14.6947 88.2145 15.264C87.8972 15.824 87.4539 16.2673 86.8845 16.594C86.3152 16.9113 85.6712 17.07 84.9525 17.07ZM84.9525 16.188C85.4845 16.188 85.9559 16.0713 86.3665 15.838C86.7772 15.5953 87.0992 15.2593 87.3325 14.83C87.5752 14.3913 87.6965 13.8873 87.6965 13.318C87.6965 12.7393 87.5752 12.2353 87.3325 11.806C87.0992 11.3767 86.7772 11.0453 86.3665 10.812C85.9559 10.5693 85.4892 10.448 84.9665 10.448C84.4439 10.448 83.9772 10.5693 83.5665 10.812C83.1559 11.0453 82.8292 11.3767 82.5865 11.806C82.3439 12.2353 82.2225 12.7393 82.2225 13.318C82.2225 13.8873 82.3439 14.3913 82.5865 14.83C82.8292 15.2593 83.1559 15.5953 83.5665 15.838C83.9772 16.0713 84.4392 16.188 84.9525 16.188ZM90.8739 17V9.65H91.8259V11.652L91.7279 11.302C91.9332 10.742 92.2786 10.3173 92.7639 10.028C93.2492 9.72933 93.8512 9.58 94.5699 9.58V10.546C94.5326 10.546 94.4952 10.546 94.4579 10.546C94.4206 10.5367 94.3832 10.532 94.3459 10.532C93.5712 10.532 92.9646 10.77 92.5259 11.246C92.0872 11.7127 91.8679 12.38 91.8679 13.248V17H90.8739ZM103.559 17.07C102.794 17.07 102.122 16.9113 101.543 16.594C100.964 16.2673 100.512 15.824 100.185 15.264C99.8584 14.6947 99.6951 14.046 99.6951 13.318C99.6951 12.59 99.8491 11.946 100.157 11.386C100.474 10.826 100.904 10.3873 101.445 10.07C101.996 9.74333 102.612 9.58 103.293 9.58C103.984 9.58 104.595 9.73867 105.127 10.056C105.668 10.364 106.093 10.8027 106.401 11.372C106.709 11.932 106.863 12.5807 106.863 13.318C106.863 13.3647 106.858 13.416 106.849 13.472C106.849 13.5187 106.849 13.57 106.849 13.626H100.451V12.884H106.317L105.925 13.178C105.925 12.646 105.808 12.1747 105.575 11.764C105.351 11.344 105.043 11.0173 104.651 10.784C104.259 10.5507 103.806 10.434 103.293 10.434C102.789 10.434 102.336 10.5507 101.935 10.784C101.534 11.0173 101.221 11.344 100.997 11.764C100.773 12.184 100.661 12.6647 100.661 13.206V13.36C100.661 13.92 100.782 14.4147 101.025 14.844C101.277 15.264 101.622 15.5953 102.061 15.838C102.509 16.0713 103.018 16.188 103.587 16.188C104.035 16.188 104.45 16.1087 104.833 15.95C105.225 15.7913 105.561 15.5487 105.841 15.222L106.401 15.866C106.074 16.258 105.664 16.5567 105.169 16.762C104.684 16.9673 104.147 17.07 103.559 17.07ZM112.162 19.786C111.49 19.786 110.846 19.688 110.23 19.492C109.614 19.296 109.115 19.016 108.732 18.652L109.236 17.896C109.582 18.204 110.006 18.4467 110.51 18.624C111.024 18.8107 111.565 18.904 112.134 18.904C113.068 18.904 113.754 18.6847 114.192 18.246C114.631 17.8167 114.85 17.1447 114.85 16.23V14.396L114.99 13.136L114.892 11.876V9.65H115.844V16.104C115.844 17.3733 115.532 18.302 114.906 18.89C114.29 19.4873 113.376 19.786 112.162 19.786ZM111.98 16.72C111.28 16.72 110.65 16.5707 110.09 16.272C109.53 15.964 109.087 15.5393 108.76 14.998C108.443 14.4567 108.284 13.836 108.284 13.136C108.284 12.436 108.443 11.82 108.76 11.288C109.087 10.7467 109.53 10.3267 110.09 10.028C110.65 9.72933 111.28 9.58 111.98 9.58C112.634 9.58 113.222 9.71533 113.744 9.986C114.267 10.2567 114.682 10.658 114.99 11.19C115.298 11.722 115.452 12.3707 115.452 13.136C115.452 13.9013 115.298 14.55 114.99 15.082C114.682 15.614 114.267 16.02 113.744 16.3C113.222 16.58 112.634 16.72 111.98 16.72ZM112.078 15.838C112.62 15.838 113.1 15.726 113.52 15.502C113.94 15.2687 114.272 14.9513 114.514 14.55C114.757 14.1393 114.878 13.668 114.878 13.136C114.878 12.604 114.757 12.1373 114.514 11.736C114.272 11.3347 113.94 11.022 113.52 10.798C113.1 10.5647 112.62 10.448 112.078 10.448C111.546 10.448 111.066 10.5647 110.636 10.798C110.216 11.022 109.885 11.3347 109.642 11.736C109.409 12.1373 109.292 12.604 109.292 13.136C109.292 13.668 109.409 14.1393 109.642 14.55C109.885 14.9513 110.216 15.2687 110.636 15.502C111.066 15.726 111.546 15.838 112.078 15.838ZM121.872 17.07C121.107 17.07 120.435 16.9113 119.856 16.594C119.278 16.2673 118.825 15.824 118.498 15.264C118.172 14.6947 118.008 14.046 118.008 13.318C118.008 12.59 118.162 11.946 118.47 11.386C118.788 10.826 119.217 10.3873 119.758 10.07C120.309 9.74333 120.925 9.58 121.606 9.58C122.297 9.58 122.908 9.73867 123.44 10.056C123.982 10.364 124.406 10.8027 124.714 11.372C125.022 11.932 125.176 12.5807 125.176 13.318C125.176 13.3647 125.172 13.416 125.162 13.472C125.162 13.5187 125.162 13.57 125.162 13.626H118.764V12.884H124.63L124.238 13.178C124.238 12.646 124.122 12.1747 123.888 11.764C123.664 11.344 123.356 11.0173 122.964 10.784C122.572 10.5507 122.12 10.434 121.606 10.434C121.102 10.434 120.65 10.5507 120.248 10.784C119.847 11.0173 119.534 11.344 119.31 11.764C119.086 12.184 118.974 12.6647 118.974 13.206V13.36C118.974 13.92 119.096 14.4147 119.338 14.844C119.59 15.264 119.936 15.5953 120.374 15.838C120.822 16.0713 121.331 16.188 121.9 16.188C122.348 16.188 122.764 16.1087 123.146 15.95C123.538 15.7913 123.874 15.5487 124.154 15.222L124.714 15.866C124.388 16.258 123.977 16.5567 123.482 16.762C122.997 16.9673 122.46 17.07 121.872 17.07ZM129.664 17.07C128.973 17.07 128.441 16.8833 128.068 16.51C127.694 16.1367 127.508 15.6093 127.508 14.928V8.026H128.502V14.872C128.502 15.3013 128.609 15.6327 128.824 15.866C129.048 16.0993 129.365 16.216 129.776 16.216C130.214 16.216 130.578 16.09 130.868 15.838L131.218 16.552C131.022 16.7293 130.784 16.86 130.504 16.944C130.233 17.028 129.953 17.07 129.664 17.07ZM126.192 10.476V9.65H130.742V10.476H126.192ZM140.765 17.07C140.13 17.07 139.556 16.9253 139.043 16.636C138.53 16.3373 138.119 15.9127 137.811 15.362C137.512 14.802 137.363 14.1207 137.363 13.318C137.363 12.5153 137.512 11.8387 137.811 11.288C138.11 10.728 138.516 10.3033 139.029 10.014C139.542 9.72467 140.121 9.58 140.765 9.58C141.465 9.58 142.09 9.73867 142.641 10.056C143.201 10.364 143.64 10.8027 143.957 11.372C144.274 11.932 144.433 12.5807 144.433 13.318C144.433 14.0647 144.274 14.718 143.957 15.278C143.64 15.838 143.201 16.2767 142.641 16.594C142.09 16.9113 141.465 17.07 140.765 17.07ZM136.971 19.716V9.65H137.923V11.862L137.825 13.332L137.965 14.816V19.716H136.971ZM140.695 16.188C141.218 16.188 141.684 16.0713 142.095 15.838C142.506 15.5953 142.832 15.2593 143.075 14.83C143.318 14.3913 143.439 13.8873 143.439 13.318C143.439 12.7487 143.318 12.2493 143.075 11.82C142.832 11.3907 142.506 11.0547 142.095 10.812C141.684 10.5693 141.218 10.448 140.695 10.448C140.172 10.448 139.701 10.5693 139.281 10.812C138.87 11.0547 138.544 11.3907 138.301 11.82C138.068 12.2493 137.951 12.7487 137.951 13.318C137.951 13.8873 138.068 14.3913 138.301 14.83C138.544 15.2593 138.87 15.5953 139.281 15.838C139.701 16.0713 140.172 16.188 140.695 16.188ZM150.351 9.58C150.949 9.58 151.471 9.69667 151.919 9.93C152.377 10.154 152.731 10.4993 152.983 10.966C153.245 11.4327 153.375 12.0207 153.375 12.73V17H152.381V12.828C152.381 12.0533 152.185 11.47 151.793 11.078C151.411 10.6767 150.869 10.476 150.169 10.476C149.647 10.476 149.189 10.5833 148.797 10.798C148.415 11.0033 148.116 11.3067 147.901 11.708C147.696 12.1 147.593 12.576 147.593 13.136V17H146.599V6.612H147.593V11.666L147.397 11.288C147.631 10.756 148.004 10.3407 148.517 10.042C149.031 9.734 149.642 9.58 150.351 9.58ZM160.806 17V15.376L160.764 15.11V12.394C160.764 11.7687 160.587 11.288 160.232 10.952C159.887 10.616 159.369 10.448 158.678 10.448C158.202 10.448 157.75 10.5273 157.32 10.686C156.891 10.8447 156.527 11.0547 156.228 11.316L155.78 10.574C156.154 10.2567 156.602 10.014 157.124 9.846C157.647 9.66867 158.198 9.58 158.776 9.58C159.728 9.58 160.461 9.818 160.974 10.294C161.497 10.7607 161.758 11.4747 161.758 12.436V17H160.806ZM158.272 17.07C157.722 17.07 157.241 16.9813 156.83 16.804C156.429 16.6173 156.121 16.3653 155.906 16.048C155.692 15.7213 155.584 15.348 155.584 14.928C155.584 14.5453 155.673 14.2 155.85 13.892C156.037 13.5747 156.336 13.3227 156.746 13.136C157.166 12.94 157.726 12.842 158.426 12.842H160.96V13.584H158.454C157.745 13.584 157.25 13.71 156.97 13.962C156.7 14.214 156.564 14.5267 156.564 14.9C156.564 15.32 156.728 15.656 157.054 15.908C157.381 16.16 157.838 16.286 158.426 16.286C158.986 16.286 159.467 16.16 159.868 15.908C160.279 15.6467 160.578 15.2733 160.764 14.788L160.988 15.474C160.802 15.9593 160.475 16.3467 160.008 16.636C159.551 16.9253 158.972 17.07 158.272 17.07ZM164.598 17V9.65H165.55V11.652L165.452 11.302C165.657 10.742 166.003 10.3173 166.488 10.028C166.973 9.72933 167.575 9.58 168.294 9.58V10.546C168.257 10.546 168.219 10.546 168.182 10.546C168.145 10.5367 168.107 10.532 168.07 10.532C167.295 10.532 166.689 10.77 166.25 11.246C165.811 11.7127 165.592 12.38 165.592 13.248V17H164.598ZM173.302 17.07C172.536 17.07 171.864 16.9113 171.286 16.594C170.707 16.2673 170.254 15.824 169.928 15.264C169.601 14.6947 169.438 14.046 169.438 13.318C169.438 12.59 169.592 11.946 169.9 11.386C170.217 10.826 170.646 10.3873 171.188 10.07C171.738 9.74333 172.354 9.58 173.036 9.58C173.726 9.58 174.338 9.73867 174.87 10.056C175.411 10.364 175.836 10.8027 176.144 11.372C176.452 11.932 176.606 12.5807 176.606 13.318C176.606 13.3647 176.601 13.416 176.592 13.472C176.592 13.5187 176.592 13.57 176.592 13.626H170.194V12.884H176.06L175.668 13.178C175.668 12.646 175.551 12.1747 175.318 11.764C175.094 11.344 174.786 11.0173 174.394 10.784C174.002 10.5507 173.549 10.434 173.036 10.434C172.532 10.434 172.079 10.5507 171.678 10.784C171.276 11.0173 170.964 11.344 170.74 11.764C170.516 12.184 170.404 12.6647 170.404 13.206V13.36C170.404 13.92 170.525 14.4147 170.768 14.844C171.02 15.264 171.365 15.5953 171.804 15.838C172.252 16.0713 172.76 16.188 173.33 16.188C173.778 16.188 174.193 16.1087 174.576 15.95C174.968 15.7913 175.304 15.5487 175.584 15.222L176.144 15.866C175.817 16.258 175.406 16.5567 174.912 16.762C174.426 16.9673 173.89 17.07 173.302 17.07ZM181.093 17.07C180.402 17.07 179.87 16.8833 179.497 16.51C179.123 16.1367 178.937 15.6093 178.937 14.928V8.026H179.931V14.872C179.931 15.3013 180.038 15.6327 180.253 15.866C180.477 16.0993 180.794 16.216 181.205 16.216C181.643 16.216 182.007 16.09 182.297 15.838L182.647 16.552C182.451 16.7293 182.213 16.86 181.933 16.944C181.662 17.028 181.382 17.07 181.093 17.07ZM177.621 10.476V9.65H182.171V10.476H177.621ZM184.596 17V9.65H185.548V11.652L185.45 11.302C185.656 10.742 186.001 10.3173 186.486 10.028C186.972 9.72933 187.574 9.58 188.292 9.58V10.546C188.255 10.546 188.218 10.546 188.18 10.546C188.143 10.5367 188.106 10.532 188.068 10.532C187.294 10.532 186.687 10.77 186.248 11.246C185.81 11.7127 185.59 12.38 185.59 13.248V17H184.596ZM194.305 17V15.376L194.263 15.11V12.394C194.263 11.7687 194.086 11.288 193.731 10.952C193.386 10.616 192.868 10.448 192.177 10.448C191.701 10.448 191.248 10.5273 190.819 10.686C190.39 10.8447 190.026 11.0547 189.727 11.316L189.279 10.574C189.652 10.2567 190.1 10.014 190.623 9.846C191.146 9.66867 191.696 9.58 192.275 9.58C193.227 9.58 193.96 9.818 194.473 10.294C194.996 10.7607 195.257 11.4747 195.257 12.436V17H194.305ZM191.771 17.07C191.22 17.07 190.74 16.9813 190.329 16.804C189.928 16.6173 189.62 16.3653 189.405 16.048C189.19 15.7213 189.083 15.348 189.083 14.928C189.083 14.5453 189.172 14.2 189.349 13.892C189.536 13.5747 189.834 13.3227 190.245 13.136C190.665 12.94 191.225 12.842 191.925 12.842H194.459V13.584H191.953C191.244 13.584 190.749 13.71 190.469 13.962C190.198 14.214 190.063 14.5267 190.063 14.9C190.063 15.32 190.226 15.656 190.553 15.908C190.88 16.16 191.337 16.286 191.925 16.286C192.485 16.286 192.966 16.16 193.367 15.908C193.778 15.6467 194.076 15.2733 194.263 14.788L194.487 15.474C194.3 15.9593 193.974 16.3467 193.507 16.636C193.05 16.9253 192.471 17.07 191.771 17.07ZM202.069 17V8.726C202.069 8.07267 202.26 7.54533 202.643 7.144C203.026 6.74267 203.576 6.542 204.295 6.542C204.575 6.542 204.846 6.57933 205.107 6.654C205.368 6.72867 205.588 6.84533 205.765 7.004L205.429 7.746C205.289 7.62467 205.126 7.536 204.939 7.48C204.752 7.41467 204.552 7.382 204.337 7.382C203.917 7.382 203.595 7.49867 203.371 7.732C203.147 7.96533 203.035 8.31067 203.035 8.768V9.888L203.063 10.35V17H202.069ZM200.753 10.476V9.65H205.303V10.476H200.753ZM211.254 17V15.376L211.212 15.11V12.394C211.212 11.7687 211.035 11.288 210.68 10.952C210.335 10.616 209.817 10.448 209.126 10.448C208.65 10.448 208.198 10.5273 207.768 10.686C207.339 10.8447 206.975 11.0547 206.676 11.316L206.228 10.574C206.602 10.2567 207.05 10.014 207.572 9.846C208.095 9.66867 208.646 9.58 209.224 9.58C210.176 9.58 210.909 9.818 211.422 10.294C211.945 10.7607 212.206 11.4747 212.206 12.436V17H211.254ZM208.72 17.07C208.17 17.07 207.689 16.9813 207.278 16.804C206.877 16.6173 206.569 16.3653 206.354 16.048C206.14 15.7213 206.032 15.348 206.032 14.928C206.032 14.5453 206.121 14.2 206.298 13.892C206.485 13.5747 206.784 13.3227 207.194 13.136C207.614 12.94 208.174 12.842 208.874 12.842H211.408V13.584H208.902C208.193 13.584 207.698 13.71 207.418 13.962C207.148 14.214 207.012 14.5267 207.012 14.9C207.012 15.32 207.176 15.656 207.502 15.908C207.829 16.16 208.286 16.286 208.874 16.286C209.434 16.286 209.915 16.16 210.316 15.908C210.727 15.6467 211.026 15.2733 211.212 14.788L211.436 15.474C211.25 15.9593 210.923 16.3467 210.456 16.636C209.999 16.9253 209.42 17.07 208.72 17.07ZM218.098 17.07C217.37 17.07 216.717 16.9113 216.138 16.594C215.569 16.2673 215.121 15.824 214.794 15.264C214.468 14.6947 214.304 14.046 214.304 13.318C214.304 12.5807 214.468 11.932 214.794 11.372C215.121 10.812 215.569 10.3733 216.138 10.056C216.717 9.73867 217.37 9.58 218.098 9.58C218.724 9.58 219.288 9.70133 219.792 9.944C220.296 10.1867 220.693 10.5507 220.982 11.036L220.24 11.54C219.988 11.1667 219.676 10.8913 219.302 10.714C218.929 10.5367 218.523 10.448 218.084 10.448C217.562 10.448 217.09 10.5693 216.67 10.812C216.25 11.0453 215.919 11.3767 215.676 11.806C215.434 12.2353 215.312 12.7393 215.312 13.318C215.312 13.8967 215.434 14.4007 215.676 14.83C215.919 15.2593 216.25 15.5953 216.67 15.838C217.09 16.0713 217.562 16.188 218.084 16.188C218.523 16.188 218.929 16.0993 219.302 15.922C219.676 15.7447 219.988 15.474 220.24 15.11L220.982 15.614C220.693 16.09 220.296 16.454 219.792 16.706C219.288 16.9487 218.724 17.07 218.098 17.07ZM222.966 17V9.65H223.96V17H222.966ZM223.47 8.026C223.264 8.026 223.092 7.956 222.952 7.816C222.812 7.676 222.742 7.508 222.742 7.312C222.742 7.116 222.812 6.95267 222.952 6.822C223.092 6.682 223.264 6.612 223.47 6.612C223.675 6.612 223.848 6.67733 223.988 6.808C224.128 6.93867 224.198 7.102 224.198 7.298C224.198 7.50333 224.128 7.676 223.988 7.816C223.857 7.956 223.684 8.026 223.47 8.026ZM226.865 17V6.612H227.859V17H226.865ZM230.765 17V9.65H231.759V17H230.765ZM231.269 8.026C231.064 8.026 230.891 7.956 230.751 7.816C230.611 7.676 230.541 7.508 230.541 7.312C230.541 7.116 230.611 6.95267 230.751 6.822C230.891 6.682 231.064 6.612 231.269 6.612C231.474 6.612 231.647 6.67733 231.787 6.808C231.927 6.93867 231.997 7.102 231.997 7.298C231.997 7.50333 231.927 7.676 231.787 7.816C231.656 7.956 231.484 8.026 231.269 8.026ZM236.639 17.07C236.032 17.07 235.458 16.986 234.917 16.818C234.375 16.6407 233.951 16.4213 233.643 16.16L234.091 15.376C234.389 15.6 234.772 15.796 235.239 15.964C235.705 16.1227 236.195 16.202 236.709 16.202C237.409 16.202 237.913 16.0947 238.221 15.88C238.529 15.656 238.683 15.362 238.683 14.998C238.683 14.7273 238.594 14.5173 238.417 14.368C238.249 14.2093 238.025 14.0927 237.745 14.018C237.465 13.934 237.152 13.864 236.807 13.808C236.461 13.752 236.116 13.6867 235.771 13.612C235.435 13.5373 235.127 13.43 234.847 13.29C234.567 13.1407 234.338 12.94 234.161 12.688C233.993 12.436 233.909 12.1 233.909 11.68C233.909 11.2787 234.021 10.9193 234.245 10.602C234.469 10.2847 234.795 10.0373 235.225 9.86C235.663 9.67333 236.195 9.58 236.821 9.58C237.297 9.58 237.773 9.64533 238.249 9.776C238.725 9.89733 239.117 10.0607 239.425 10.266L238.991 11.064C238.664 10.84 238.314 10.6813 237.941 10.588C237.567 10.4853 237.194 10.434 236.821 10.434C236.158 10.434 235.668 10.5507 235.351 10.784C235.043 11.008 234.889 11.2973 234.889 11.652C234.889 11.932 234.973 12.1513 235.141 12.31C235.318 12.4687 235.547 12.5947 235.827 12.688C236.116 12.772 236.429 12.842 236.765 12.898C237.11 12.954 237.451 13.024 237.787 13.108C238.132 13.1827 238.445 13.29 238.725 13.43C239.014 13.5607 239.243 13.752 239.411 14.004C239.588 14.2467 239.677 14.5687 239.677 14.97C239.677 15.3993 239.555 15.7727 239.313 16.09C239.079 16.398 238.734 16.6407 238.277 16.818C237.829 16.986 237.283 17.07 236.639 17.07ZM241.641 17V9.65H242.635V17H241.641ZM242.145 8.026C241.939 8.026 241.767 7.956 241.627 7.816C241.487 7.676 241.417 7.508 241.417 7.312C241.417 7.116 241.487 6.95267 241.627 6.822C241.767 6.682 241.939 6.612 242.145 6.612C242.35 6.612 242.523 6.67733 242.663 6.808C242.803 6.93867 242.873 7.102 242.873 7.298C242.873 7.50333 242.803 7.676 242.663 7.816C242.532 7.956 242.359 8.026 242.145 8.026ZM247.515 17.07C246.908 17.07 246.334 16.986 245.793 16.818C245.251 16.6407 244.827 16.4213 244.519 16.16L244.967 15.376C245.265 15.6 245.648 15.796 246.115 15.964C246.581 16.1227 247.071 16.202 247.585 16.202C248.285 16.202 248.789 16.0947 249.097 15.88C249.405 15.656 249.559 15.362 249.559 14.998C249.559 14.7273 249.47 14.5173 249.293 14.368C249.125 14.2093 248.901 14.0927 248.621 14.018C248.341 13.934 248.028 13.864 247.683 13.808C247.337 13.752 246.992 13.6867 246.647 13.612C246.311 13.5373 246.003 13.43 245.723 13.29C245.443 13.1407 245.214 12.94 245.037 12.688C244.869 12.436 244.785 12.1 244.785 11.68C244.785 11.2787 244.897 10.9193 245.121 10.602C245.345 10.2847 245.671 10.0373 246.101 9.86C246.539 9.67333 247.071 9.58 247.697 9.58C248.173 9.58 248.649 9.64533 249.125 9.776C249.601 9.89733 249.993 10.0607 250.301 10.266L249.867 11.064C249.54 10.84 249.19 10.6813 248.817 10.588C248.443 10.4853 248.07 10.434 247.697 10.434C247.034 10.434 246.544 10.5507 246.227 10.784C245.919 11.008 245.765 11.2973 245.765 11.652C245.765 11.932 245.849 12.1513 246.017 12.31C246.194 12.4687 246.423 12.5947 246.703 12.688C246.992 12.772 247.305 12.842 247.641 12.898C247.986 12.954 248.327 13.024 248.663 13.108C249.008 13.1827 249.321 13.29 249.601 13.43C249.89 13.5607 250.119 13.752 250.287 14.004C250.464 14.2467 250.553 14.5687 250.553 14.97C250.553 15.3993 250.431 15.7727 250.189 16.09C249.955 16.398 249.61 16.6407 249.153 16.818C248.705 16.986 248.159 17.07 247.515 17.07ZM258.295 17.07C257.688 17.07 257.114 16.986 256.573 16.818C256.031 16.6407 255.607 16.4213 255.299 16.16L255.747 15.376C256.045 15.6 256.428 15.796 256.895 15.964C257.361 16.1227 257.851 16.202 258.365 16.202C259.065 16.202 259.569 16.0947 259.877 15.88C260.185 15.656 260.339 15.362 260.339 14.998C260.339 14.7273 260.25 14.5173 260.073 14.368C259.905 14.2093 259.681 14.0927 259.401 14.018C259.121 13.934 258.808 13.864 258.463 13.808C258.117 13.752 257.772 13.6867 257.427 13.612C257.091 13.5373 256.783 13.43 256.503 13.29C256.223 13.1407 255.994 12.94 255.817 12.688C255.649 12.436 255.565 12.1 255.565 11.68C255.565 11.2787 255.677 10.9193 255.901 10.602C256.125 10.2847 256.451 10.0373 256.881 9.86C257.319 9.67333 257.851 9.58 258.477 9.58C258.953 9.58 259.429 9.64533 259.905 9.776C260.381 9.89733 260.773 10.0607 261.081 10.266L260.647 11.064C260.32 10.84 259.97 10.6813 259.597 10.588C259.223 10.4853 258.85 10.434 258.477 10.434C257.814 10.434 257.324 10.5507 257.007 10.784C256.699 11.008 256.545 11.2973 256.545 11.652C256.545 11.932 256.629 12.1513 256.797 12.31C256.974 12.4687 257.203 12.5947 257.483 12.688C257.772 12.772 258.085 12.842 258.421 12.898C258.766 12.954 259.107 13.024 259.443 13.108C259.788 13.1827 260.101 13.29 260.381 13.43C260.67 13.5607 260.899 13.752 261.067 14.004C261.244 14.2467 261.333 14.5687 261.333 14.97C261.333 15.3993 261.211 15.7727 260.969 16.09C260.735 16.398 260.39 16.6407 259.933 16.818C259.485 16.986 258.939 17.07 258.295 17.07ZM266.418 17.07C265.653 17.07 264.981 16.9113 264.402 16.594C263.824 16.2673 263.371 15.824 263.044 15.264C262.718 14.6947 262.554 14.046 262.554 13.318C262.554 12.59 262.708 11.946 263.016 11.386C263.334 10.826 263.763 10.3873 264.304 10.07C264.855 9.74333 265.471 9.58 266.152 9.58C266.843 9.58 267.454 9.73867 267.986 10.056C268.528 10.364 268.952 10.8027 269.26 11.372C269.568 11.932 269.722 12.5807 269.722 13.318C269.722 13.3647 269.718 13.416 269.708 13.472C269.708 13.5187 269.708 13.57 269.708 13.626H263.31V12.884H269.176L268.784 13.178C268.784 12.646 268.668 12.1747 268.434 11.764C268.21 11.344 267.902 11.0173 267.51 10.784C267.118 10.5507 266.666 10.434 266.152 10.434C265.648 10.434 265.196 10.5507 264.794 10.784C264.393 11.0173 264.08 11.344 263.856 11.764C263.632 12.184 263.52 12.6647 263.52 13.206V13.36C263.52 13.92 263.642 14.4147 263.884 14.844C264.136 15.264 264.482 15.5953 264.92 15.838C265.368 16.0713 265.877 16.188 266.446 16.188C266.894 16.188 267.31 16.1087 267.692 15.95C268.084 15.7913 268.42 15.5487 268.7 15.222L269.26 15.866C268.934 16.258 268.523 16.5567 268.028 16.762C267.543 16.9673 267.006 17.07 266.418 17.07ZM274.812 17.07C274.112 17.07 273.482 16.9113 272.922 16.594C272.371 16.2767 271.937 15.838 271.62 15.278C271.302 14.7087 271.144 14.0553 271.144 13.318C271.144 12.5713 271.302 11.918 271.62 11.358C271.937 10.798 272.371 10.364 272.922 10.056C273.482 9.73867 274.112 9.58 274.812 9.58C275.456 9.58 276.03 9.72467 276.534 10.014C277.047 10.3033 277.453 10.728 277.752 11.288C278.06 11.8387 278.214 12.5153 278.214 13.318C278.214 14.1113 278.064 14.788 277.766 15.348C277.467 15.908 277.061 16.3373 276.548 16.636C276.044 16.9253 275.465 17.07 274.812 17.07ZM274.882 16.188C275.404 16.188 275.871 16.0713 276.282 15.838C276.702 15.5953 277.028 15.2593 277.262 14.83C277.504 14.3913 277.626 13.8873 277.626 13.318C277.626 12.7393 277.504 12.2353 277.262 11.806C277.028 11.3767 276.702 11.0453 276.282 10.812C275.871 10.5693 275.404 10.448 274.882 10.448C274.368 10.448 273.906 10.5693 273.496 10.812C273.085 11.0453 272.758 11.3767 272.516 11.806C272.273 12.2353 272.152 12.7393 272.152 13.318C272.152 13.8873 272.273 14.3913 272.516 14.83C272.758 15.2593 273.085 15.5953 273.496 15.838C273.906 16.0713 274.368 16.188 274.882 16.188ZM277.654 17V14.788L277.752 13.304L277.612 11.82V6.612H278.606V17H277.654ZM294.502 9.58C295.099 9.58 295.617 9.69667 296.056 9.93C296.504 10.154 296.849 10.4993 297.092 10.966C297.344 11.4327 297.47 12.0207 297.47 12.73V17H296.476V12.828C296.476 12.0533 296.289 11.47 295.916 11.078C295.552 10.6767 295.034 10.476 294.362 10.476C293.858 10.476 293.419 10.5833 293.046 10.798C292.682 11.0033 292.397 11.3067 292.192 11.708C291.996 12.1 291.898 12.576 291.898 13.136V17H290.904V12.828C290.904 12.0533 290.717 11.47 290.344 11.078C289.971 10.6767 289.448 10.476 288.776 10.476C288.281 10.476 287.847 10.5833 287.474 10.798C287.101 11.0033 286.811 11.3067 286.606 11.708C286.41 12.1 286.312 12.576 286.312 13.136V17H285.318V9.65H286.27V11.638L286.116 11.288C286.34 10.756 286.699 10.3407 287.194 10.042C287.698 9.734 288.291 9.58 288.972 9.58C289.691 9.58 290.302 9.762 290.806 10.126C291.31 10.4807 291.637 11.0173 291.786 11.736L291.394 11.582C291.609 10.9847 291.987 10.504 292.528 10.14C293.079 9.76667 293.737 9.58 294.502 9.58ZM304.912 17V15.376L304.87 15.11V12.394C304.87 11.7687 304.692 11.288 304.338 10.952C303.992 10.616 303.474 10.448 302.784 10.448C302.308 10.448 301.855 10.5273 301.426 10.686C300.996 10.8447 300.632 11.0547 300.334 11.316L299.886 10.574C300.259 10.2567 300.707 10.014 301.23 9.846C301.752 9.66867 302.303 9.58 302.882 9.58C303.834 9.58 304.566 9.818 305.08 10.294C305.602 10.7607 305.864 11.4747 305.864 12.436V17H304.912ZM302.378 17.07C301.827 17.07 301.346 16.9813 300.936 16.804C300.534 16.6173 300.226 16.3653 300.012 16.048C299.797 15.7213 299.69 15.348 299.69 14.928C299.69 14.5453 299.778 14.2 299.956 13.892C300.142 13.5747 300.441 13.3227 300.852 13.136C301.272 12.94 301.832 12.842 302.532 12.842H305.066V13.584H302.56C301.85 13.584 301.356 13.71 301.076 13.962C300.805 14.214 300.67 14.5267 300.67 14.9C300.67 15.32 300.833 15.656 301.16 15.908C301.486 16.16 301.944 16.286 302.532 16.286C303.092 16.286 303.572 16.16 303.974 15.908C304.384 15.6467 304.683 15.2733 304.87 14.788L305.094 15.474C304.907 15.9593 304.58 16.3467 304.114 16.636C303.656 16.9253 303.078 17.07 302.378 17.07ZM311.826 17.07C311.06 17.07 310.388 16.9113 309.81 16.594C309.231 16.2673 308.778 15.824 308.452 15.264C308.125 14.6947 307.962 14.046 307.962 13.318C307.962 12.59 308.116 11.946 308.424 11.386C308.741 10.826 309.17 10.3873 309.712 10.07C310.262 9.74333 310.878 9.58 311.56 9.58C312.25 9.58 312.862 9.73867 313.394 10.056C313.935 10.364 314.36 10.8027 314.668 11.372C314.976 11.932 315.13 12.5807 315.13 13.318C315.13 13.3647 315.125 13.416 315.116 13.472C315.116 13.5187 315.116 13.57 315.116 13.626H308.718V12.884H314.584L314.192 13.178C314.192 12.646 314.075 12.1747 313.842 11.764C313.618 11.344 313.31 11.0173 312.918 10.784C312.526 10.5507 312.073 10.434 311.56 10.434C311.056 10.434 310.603 10.5507 310.202 10.784C309.8 11.0173 309.488 11.344 309.264 11.764C309.04 12.184 308.928 12.6647 308.928 13.206V13.36C308.928 13.92 309.049 14.4147 309.292 14.844C309.544 15.264 309.889 15.5953 310.328 15.838C310.776 16.0713 311.284 16.188 311.854 16.188C312.302 16.188 312.717 16.1087 313.1 15.95C313.492 15.7913 313.828 15.5487 314.108 15.222L314.668 15.866C314.341 16.258 313.93 16.5567 313.436 16.762C312.95 16.9673 312.414 17.07 311.826 17.07ZM320.345 17.07C319.617 17.07 318.963 16.9113 318.385 16.594C317.815 16.2673 317.367 15.824 317.041 15.264C316.714 14.6947 316.551 14.046 316.551 13.318C316.551 12.5807 316.714 11.932 317.041 11.372C317.367 10.812 317.815 10.3733 318.385 10.056C318.963 9.73867 319.617 9.58 320.345 9.58C320.97 9.58 321.535 9.70133 322.039 9.944C322.543 10.1867 322.939 10.5507 323.229 11.036L322.487 11.54C322.235 11.1667 321.922 10.8913 321.549 10.714C321.175 10.5367 320.769 10.448 320.331 10.448C319.808 10.448 319.337 10.5693 318.917 10.812C318.497 11.0453 318.165 11.3767 317.923 11.806C317.68 12.2353 317.559 12.7393 317.559 13.318C317.559 13.8967 317.68 14.4007 317.923 14.83C318.165 15.2593 318.497 15.5953 318.917 15.838C319.337 16.0713 319.808 16.188 320.331 16.188C320.769 16.188 321.175 16.0993 321.549 15.922C321.922 15.7447 322.235 15.474 322.487 15.11L323.229 15.614C322.939 16.09 322.543 16.454 322.039 16.706C321.535 16.9487 320.97 17.07 320.345 17.07ZM328.32 17.07C327.555 17.07 326.883 16.9113 326.304 16.594C325.726 16.2673 325.273 15.824 324.946 15.264C324.62 14.6947 324.456 14.046 324.456 13.318C324.456 12.59 324.61 11.946 324.918 11.386C325.236 10.826 325.665 10.3873 326.206 10.07C326.757 9.74333 327.373 9.58 328.054 9.58C328.745 9.58 329.356 9.73867 329.888 10.056C330.43 10.364 330.854 10.8027 331.162 11.372C331.47 11.932 331.624 12.5807 331.624 13.318C331.624 13.3647 331.62 13.416 331.61 13.472C331.61 13.5187 331.61 13.57 331.61 13.626H325.212V12.884H331.078L330.686 13.178C330.686 12.646 330.57 12.1747 330.336 11.764C330.112 11.344 329.804 11.0173 329.412 10.784C329.02 10.5507 328.568 10.434 328.054 10.434C327.55 10.434 327.098 10.5507 326.696 10.784C326.295 11.0173 325.982 11.344 325.758 11.764C325.534 12.184 325.422 12.6647 325.422 13.206V13.36C325.422 13.92 325.544 14.4147 325.786 14.844C326.038 15.264 326.384 15.5953 326.822 15.838C327.27 16.0713 327.779 16.188 328.348 16.188C328.796 16.188 329.212 16.1087 329.594 15.95C329.986 15.7913 330.322 15.5487 330.602 15.222L331.162 15.866C330.836 16.258 330.425 16.5567 329.93 16.762C329.445 16.9673 328.908 17.07 328.32 17.07ZM337.54 9.58C338.137 9.58 338.66 9.69667 339.108 9.93C339.565 10.154 339.92 10.4993 340.172 10.966C340.433 11.4327 340.564 12.0207 340.564 12.73V17H339.57V12.828C339.57 12.0533 339.374 11.47 338.982 11.078C338.599 10.6767 338.058 10.476 337.358 10.476C336.835 10.476 336.378 10.5833 335.986 10.798C335.603 11.0033 335.304 11.3067 335.09 11.708C334.884 12.1 334.782 12.576 334.782 13.136V17H333.788V9.65H334.74V11.666L334.586 11.288C334.819 10.756 335.192 10.3407 335.706 10.042C336.219 9.734 336.83 9.58 337.54 9.58ZM347.995 17V15.376L347.953 15.11V12.394C347.953 11.7687 347.775 11.288 347.421 10.952C347.075 10.616 346.557 10.448 345.867 10.448C345.391 10.448 344.938 10.5273 344.509 10.686C344.079 10.8447 343.715 11.0547 343.417 11.316L342.969 10.574C343.342 10.2567 343.79 10.014 344.313 9.846C344.835 9.66867 345.386 9.58 345.965 9.58C346.917 9.58 347.649 9.818 348.163 10.294C348.685 10.7607 348.947 11.4747 348.947 12.436V17H347.995ZM345.461 17.07C344.91 17.07 344.429 16.9813 344.019 16.804C343.617 16.6173 343.309 16.3653 343.095 16.048C342.88 15.7213 342.773 15.348 342.773 14.928C342.773 14.5453 342.861 14.2 343.039 13.892C343.225 13.5747 343.524 13.3227 343.935 13.136C344.355 12.94 344.915 12.842 345.615 12.842H348.149V13.584H345.643C344.933 13.584 344.439 13.71 344.159 13.962C343.888 14.214 343.753 14.5267 343.753 14.9C343.753 15.32 343.916 15.656 344.243 15.908C344.569 16.16 345.027 16.286 345.615 16.286C346.175 16.286 346.655 16.16 347.057 15.908C347.467 15.6467 347.766 15.2733 347.953 14.788L348.177 15.474C347.99 15.9593 347.663 16.3467 347.197 16.636C346.739 16.9253 346.161 17.07 345.461 17.07ZM353.76 17.07C353.154 17.07 352.58 16.986 352.038 16.818C351.497 16.6407 351.072 16.4213 350.764 16.16L351.212 15.376C351.511 15.6 351.894 15.796 352.36 15.964C352.827 16.1227 353.317 16.202 353.83 16.202C354.53 16.202 355.034 16.0947 355.342 15.88C355.65 15.656 355.804 15.362 355.804 14.998C355.804 14.7273 355.716 14.5173 355.538 14.368C355.37 14.2093 355.146 14.0927 354.866 14.018C354.586 13.934 354.274 13.864 353.928 13.808C353.583 13.752 353.238 13.6867 352.892 13.612C352.556 13.5373 352.248 13.43 351.968 13.29C351.688 13.1407 351.46 12.94 351.282 12.688C351.114 12.436 351.03 12.1 351.03 11.68C351.03 11.2787 351.142 10.9193 351.366 10.602C351.59 10.2847 351.917 10.0373 352.346 9.86C352.785 9.67333 353.317 9.58 353.942 9.58C354.418 9.58 354.894 9.64533 355.37 9.776C355.846 9.89733 356.238 10.0607 356.546 10.266L356.112 11.064C355.786 10.84 355.436 10.6813 355.062 10.588C354.689 10.4853 354.316 10.434 353.942 10.434C353.28 10.434 352.79 10.5507 352.472 10.784C352.164 11.008 352.01 11.2973 352.01 11.652C352.01 11.932 352.094 12.1513 352.262 12.31C352.44 12.4687 352.668 12.5947 352.948 12.688C353.238 12.772 353.55 12.842 353.886 12.898C354.232 12.954 354.572 13.024 354.908 13.108C355.254 13.1827 355.566 13.29 355.846 13.43C356.136 13.5607 356.364 13.752 356.532 14.004C356.71 14.2467 356.798 14.5687 356.798 14.97C356.798 15.3993 356.677 15.7727 356.434 16.09C356.201 16.398 355.856 16.6407 355.398 16.818C354.95 16.986 354.404 17.07 353.76 17.07ZM367.172 17V15.376L367.13 15.11V12.394C367.13 11.7687 366.953 11.288 366.598 10.952C366.253 10.616 365.735 10.448 365.044 10.448C364.568 10.448 364.116 10.5273 363.686 10.686C363.257 10.8447 362.893 11.0547 362.594 11.316L362.146 10.574C362.52 10.2567 362.968 10.014 363.49 9.846C364.013 9.66867 364.564 9.58 365.142 9.58C366.094 9.58 366.827 9.818 367.34 10.294C367.863 10.7607 368.124 11.4747 368.124 12.436V17H367.172ZM364.638 17.07C364.088 17.07 363.607 16.9813 363.196 16.804C362.795 16.6173 362.487 16.3653 362.272 16.048C362.058 15.7213 361.95 15.348 361.95 14.928C361.95 14.5453 362.039 14.2 362.216 13.892C362.403 13.5747 362.702 13.3227 363.112 13.136C363.532 12.94 364.092 12.842 364.792 12.842H367.326V13.584H364.82C364.111 13.584 363.616 13.71 363.336 13.962C363.066 14.214 362.93 14.5267 362.93 14.9C362.93 15.32 363.094 15.656 363.42 15.908C363.747 16.16 364.204 16.286 364.792 16.286C365.352 16.286 365.833 16.16 366.234 15.908C366.645 15.6467 366.944 15.2733 367.13 14.788L367.354 15.474C367.168 15.9593 366.841 16.3467 366.374 16.636C365.917 16.9253 365.338 17.07 364.638 17.07ZM373.89 17.07C373.19 17.07 372.56 16.9113 372 16.594C371.449 16.2767 371.015 15.838 370.698 15.278C370.381 14.7087 370.222 14.0553 370.222 13.318C370.222 12.5713 370.381 11.918 370.698 11.358C371.015 10.798 371.449 10.364 372 10.056C372.56 9.73867 373.19 9.58 373.89 9.58C374.534 9.58 375.108 9.72467 375.612 10.014C376.125 10.3033 376.531 10.728 376.83 11.288C377.138 11.8387 377.292 12.5153 377.292 13.318C377.292 14.1113 377.143 14.788 376.844 15.348C376.545 15.908 376.139 16.3373 375.626 16.636C375.122 16.9253 374.543 17.07 373.89 17.07ZM373.96 16.188C374.483 16.188 374.949 16.0713 375.36 15.838C375.78 15.5953 376.107 15.2593 376.34 14.83C376.583 14.3913 376.704 13.8873 376.704 13.318C376.704 12.7393 376.583 12.2353 376.34 11.806C376.107 11.3767 375.78 11.0453 375.36 10.812C374.949 10.5693 374.483 10.448 373.96 10.448C373.447 10.448 372.985 10.5693 372.574 10.812C372.163 11.0453 371.837 11.3767 371.594 11.806C371.351 12.2353 371.23 12.7393 371.23 13.318C371.23 13.8873 371.351 14.3913 371.594 14.83C371.837 15.2593 372.163 15.5953 372.574 15.838C372.985 16.0713 373.447 16.188 373.96 16.188ZM376.732 17V14.788L376.83 13.304L376.69 11.82V6.612H377.684V17H376.732ZM380.592 17V9.65H381.586V17H380.592ZM381.096 8.026C380.891 8.026 380.718 7.956 380.578 7.816C380.438 7.676 380.368 7.508 380.368 7.312C380.368 7.116 380.438 6.95267 380.578 6.822C380.718 6.682 380.891 6.612 381.096 6.612C381.302 6.612 381.474 6.67733 381.614 6.808C381.754 6.93867 381.824 7.102 381.824 7.298C381.824 7.50333 381.754 7.676 381.614 7.816C381.484 7.956 381.311 8.026 381.096 8.026ZM388.286 17.07C387.652 17.07 387.078 16.9253 386.564 16.636C386.051 16.3373 385.64 15.9127 385.332 15.362C385.034 14.802 384.884 14.1207 384.884 13.318C384.884 12.5153 385.034 11.8387 385.332 11.288C385.631 10.728 386.037 10.3033 386.55 10.014C387.064 9.72467 387.642 9.58 388.286 9.58C388.986 9.58 389.612 9.73867 390.162 10.056C390.722 10.364 391.161 10.8027 391.478 11.372C391.796 11.932 391.954 12.5807 391.954 13.318C391.954 14.0647 391.796 14.718 391.478 15.278C391.161 15.838 390.722 16.2767 390.162 16.594C389.612 16.9113 388.986 17.07 388.286 17.07ZM384.492 19.716V9.65H385.444V11.862L385.346 13.332L385.486 14.816V19.716H384.492ZM388.216 16.188C388.739 16.188 389.206 16.0713 389.616 15.838C390.027 15.5953 390.354 15.2593 390.596 14.83C390.839 14.3913 390.96 13.8873 390.96 13.318C390.96 12.7487 390.839 12.2493 390.596 11.82C390.354 11.3907 390.027 11.0547 389.616 10.812C389.206 10.5693 388.739 10.448 388.216 10.448C387.694 10.448 387.222 10.5693 386.802 10.812C386.392 11.0547 386.065 11.3907 385.822 11.82C385.589 12.2493 385.472 12.7487 385.472 13.318C385.472 13.8873 385.589 14.3913 385.822 14.83C386.065 15.2593 386.392 15.5953 386.802 15.838C387.222 16.0713 387.694 16.188 388.216 16.188ZM394.12 17V9.65H395.114V17H394.12ZM394.624 8.026C394.419 8.026 394.246 7.956 394.106 7.816C393.966 7.676 393.896 7.508 393.896 7.312C393.896 7.116 393.966 6.95267 394.106 6.822C394.246 6.682 394.419 6.612 394.624 6.612C394.83 6.612 395.002 6.67733 395.142 6.808C395.282 6.93867 395.352 7.102 395.352 7.298C395.352 7.50333 395.282 7.676 395.142 7.816C395.012 7.956 394.839 8.026 394.624 8.026ZM399.994 17.07C399.388 17.07 398.814 16.986 398.272 16.818C397.731 16.6407 397.306 16.4213 396.998 16.16L397.446 15.376C397.745 15.6 398.128 15.796 398.594 15.964C399.061 16.1227 399.551 16.202 400.064 16.202C400.764 16.202 401.268 16.0947 401.576 15.88C401.884 15.656 402.038 15.362 402.038 14.998C402.038 14.7273 401.95 14.5173 401.772 14.368C401.604 14.2093 401.38 14.0927 401.1 14.018C400.82 13.934 400.508 13.864 400.162 13.808C399.817 13.752 399.472 13.6867 399.126 13.612C398.79 13.5373 398.482 13.43 398.202 13.29C397.922 13.1407 397.694 12.94 397.516 12.688C397.348 12.436 397.264 12.1 397.264 11.68C397.264 11.2787 397.376 10.9193 397.6 10.602C397.824 10.2847 398.151 10.0373 398.58 9.86C399.019 9.67333 399.551 9.58 400.176 9.58C400.652 9.58 401.128 9.64533 401.604 9.776C402.08 9.89733 402.472 10.0607 402.78 10.266L402.346 11.064C402.02 10.84 401.67 10.6813 401.296 10.588C400.923 10.4853 400.55 10.434 400.176 10.434C399.514 10.434 399.024 10.5507 398.706 10.784C398.398 11.008 398.244 11.2973 398.244 11.652C398.244 11.932 398.328 12.1513 398.496 12.31C398.674 12.4687 398.902 12.5947 399.182 12.688C399.472 12.772 399.784 12.842 400.12 12.898C400.466 12.954 400.806 13.024 401.142 13.108C401.488 13.1827 401.8 13.29 402.08 13.43C402.37 13.5607 402.598 13.752 402.766 14.004C402.944 14.2467 403.032 14.5687 403.032 14.97C403.032 15.3993 402.911 15.7727 402.668 16.09C402.435 16.398 402.09 16.6407 401.632 16.818C401.184 16.986 400.638 17.07 399.994 17.07ZM408.048 17.07C407.32 17.07 406.667 16.9113 406.088 16.594C405.519 16.2673 405.071 15.824 404.744 15.264C404.418 14.6947 404.254 14.046 404.254 13.318C404.254 12.5807 404.418 11.932 404.744 11.372C405.071 10.812 405.519 10.3733 406.088 10.056C406.667 9.73867 407.32 9.58 408.048 9.58C408.674 9.58 409.238 9.70133 409.742 9.944C410.246 10.1867 410.643 10.5507 410.932 11.036L410.19 11.54C409.938 11.1667 409.626 10.8913 409.252 10.714C408.879 10.5367 408.473 10.448 408.034 10.448C407.512 10.448 407.04 10.5693 406.62 10.812C406.2 11.0453 405.869 11.3767 405.626 11.806C405.384 12.2353 405.262 12.7393 405.262 13.318C405.262 13.8967 405.384 14.4007 405.626 14.83C405.869 15.2593 406.2 15.5953 406.62 15.838C407.04 16.0713 407.512 16.188 408.034 16.188C408.473 16.188 408.879 16.0993 409.252 15.922C409.626 15.7447 409.938 15.474 410.19 15.11L410.932 15.614C410.643 16.09 410.246 16.454 409.742 16.706C409.238 16.9487 408.674 17.07 408.048 17.07ZM412.915 17V9.65H413.909V17H412.915ZM413.419 8.026C413.214 8.026 413.041 7.956 412.901 7.816C412.761 7.676 412.691 7.508 412.691 7.312C412.691 7.116 412.761 6.95267 412.901 6.822C413.041 6.682 413.214 6.612 413.419 6.612C413.625 6.612 413.797 6.67733 413.937 6.808C414.077 6.93867 414.147 7.102 414.147 7.298C414.147 7.50333 414.077 7.676 413.937 7.816C413.807 7.956 413.634 8.026 413.419 8.026ZM420.567 9.58C421.165 9.58 421.687 9.69667 422.135 9.93C422.593 10.154 422.947 10.4993 423.199 10.966C423.461 11.4327 423.591 12.0207 423.591 12.73V17H422.597V12.828C422.597 12.0533 422.401 11.47 422.009 11.078C421.627 10.6767 421.085 10.476 420.385 10.476C419.863 10.476 419.405 10.5833 419.013 10.798C418.631 11.0033 418.332 11.3067 418.117 11.708C417.912 12.1 417.809 12.576 417.809 13.136V17H416.815V9.65H417.767V11.666L417.613 11.288C417.847 10.756 418.22 10.3407 418.733 10.042C419.247 9.734 419.858 9.58 420.567 9.58ZM429.552 19.786C428.88 19.786 428.236 19.688 427.62 19.492C427.004 19.296 426.505 19.016 426.122 18.652L426.626 17.896C426.971 18.204 427.396 18.4467 427.9 18.624C428.413 18.8107 428.955 18.904 429.524 18.904C430.457 18.904 431.143 18.6847 431.582 18.246C432.021 17.8167 432.24 17.1447 432.24 16.23V14.396L432.38 13.136L432.282 11.876V9.65H433.234V16.104C433.234 17.3733 432.921 18.302 432.296 18.89C431.68 19.4873 430.765 19.786 429.552 19.786ZM429.37 16.72C428.67 16.72 428.04 16.5707 427.48 16.272C426.92 15.964 426.477 15.5393 426.15 14.998C425.833 14.4567 425.674 13.836 425.674 13.136C425.674 12.436 425.833 11.82 426.15 11.288C426.477 10.7467 426.92 10.3267 427.48 10.028C428.04 9.72933 428.67 9.58 429.37 9.58C430.023 9.58 430.611 9.71533 431.134 9.986C431.657 10.2567 432.072 10.658 432.38 11.19C432.688 11.722 432.842 12.3707 432.842 13.136C432.842 13.9013 432.688 14.55 432.38 15.082C432.072 15.614 431.657 16.02 431.134 16.3C430.611 16.58 430.023 16.72 429.37 16.72ZM429.468 15.838C430.009 15.838 430.49 15.726 430.91 15.502C431.33 15.2687 431.661 14.9513 431.904 14.55C432.147 14.1393 432.268 13.668 432.268 13.136C432.268 12.604 432.147 12.1373 431.904 11.736C431.661 11.3347 431.33 11.022 430.91 10.798C430.49 10.5647 430.009 10.448 429.468 10.448C428.936 10.448 428.455 10.5647 428.026 10.798C427.606 11.022 427.275 11.3347 427.032 11.736C426.799 12.1373 426.682 12.604 426.682 13.136C426.682 13.668 426.799 14.1393 427.032 14.55C427.275 14.9513 427.606 15.2687 428.026 15.502C428.455 15.726 428.936 15.838 429.468 15.838ZM436.238 17.07C436.033 17.07 435.855 16.9953 435.706 16.846C435.566 16.6967 435.496 16.5147 435.496 16.3C435.496 16.076 435.566 15.894 435.706 15.754C435.855 15.614 436.033 15.544 436.238 15.544C436.443 15.544 436.616 15.614 436.756 15.754C436.905 15.894 436.98 16.076 436.98 16.3C436.98 16.5147 436.905 16.6967 436.756 16.846C436.616 16.9953 436.443 17.07 436.238 17.07ZM444.185 11.582H449.365V12.464H444.185V11.582ZM444.297 16.104H450.191V17H443.261V7.2H449.981V8.096H444.297V16.104ZM455.485 17.07C454.86 17.07 454.314 16.9533 453.847 16.72C453.38 16.4867 453.016 16.1367 452.755 15.67C452.503 15.2033 452.377 14.62 452.377 13.92V9.65H453.371V13.808C453.371 14.592 453.562 15.1847 453.945 15.586C454.337 15.978 454.883 16.174 455.583 16.174C456.096 16.174 456.54 16.0713 456.913 15.866C457.296 15.6513 457.585 15.3433 457.781 14.942C457.986 14.5407 458.089 14.06 458.089 13.5V9.65H459.083V17H458.131V14.984L458.285 15.348C458.052 15.8893 457.688 16.314 457.193 16.622C456.708 16.9207 456.138 17.07 455.485 17.07ZM465.797 17V6.612H466.791V17H465.797ZM472.819 17.07C472.054 17.07 471.382 16.9113 470.803 16.594C470.224 16.2673 469.772 15.824 469.445 15.264C469.118 14.6947 468.955 14.046 468.955 13.318C468.955 12.59 469.109 11.946 469.417 11.386C469.734 10.826 470.164 10.3873 470.705 10.07C471.256 9.74333 471.872 9.58 472.553 9.58C473.244 9.58 473.855 9.73867 474.387 10.056C474.928 10.364 475.353 10.8027 475.661 11.372C475.969 11.932 476.123 12.5807 476.123 13.318C476.123 13.3647 476.118 13.416 476.109 13.472C476.109 13.5187 476.109 13.57 476.109 13.626H469.711V12.884H475.577L475.185 13.178C475.185 12.646 475.068 12.1747 474.835 11.764C474.611 11.344 474.303 11.0173 473.911 10.784C473.519 10.5507 473.066 10.434 472.553 10.434C472.049 10.434 471.596 10.5507 471.195 10.784C470.794 11.0173 470.481 11.344 470.257 11.764C470.033 12.184 469.921 12.6647 469.921 13.206V13.36C469.921 13.92 470.042 14.4147 470.285 14.844C470.537 15.264 470.882 15.5953 471.321 15.838C471.769 16.0713 472.278 16.188 472.847 16.188C473.295 16.188 473.71 16.1087 474.093 15.95C474.485 15.7913 474.821 15.5487 475.101 15.222L475.661 15.866C475.334 16.258 474.924 16.5567 474.429 16.762C473.944 16.9673 473.407 17.07 472.819 17.07ZM481.282 17.07C480.573 17.07 479.933 16.9113 479.364 16.594C478.804 16.2673 478.361 15.824 478.034 15.264C477.707 14.6947 477.544 14.046 477.544 13.318C477.544 12.5807 477.707 11.932 478.034 11.372C478.361 10.812 478.804 10.3733 479.364 10.056C479.924 9.73867 480.563 9.58 481.282 9.58C482.01 9.58 482.654 9.73867 483.214 10.056C483.783 10.3733 484.227 10.812 484.544 11.372C484.871 11.932 485.034 12.5807 485.034 13.318C485.034 14.046 484.871 14.6947 484.544 15.264C484.227 15.824 483.783 16.2673 483.214 16.594C482.645 16.9113 482.001 17.07 481.282 17.07ZM481.282 16.188C481.814 16.188 482.285 16.0713 482.696 15.838C483.107 15.5953 483.429 15.2593 483.662 14.83C483.905 14.3913 484.026 13.8873 484.026 13.318C484.026 12.7393 483.905 12.2353 483.662 11.806C483.429 11.3767 483.107 11.0453 482.696 10.812C482.285 10.5693 481.819 10.448 481.296 10.448C480.773 10.448 480.307 10.5693 479.896 10.812C479.485 11.0453 479.159 11.3767 478.916 11.806C478.673 12.2353 478.552 12.7393 478.552 13.318C478.552 13.8873 478.673 14.3913 478.916 14.83C479.159 15.2593 479.485 15.5953 479.896 15.838C480.307 16.0713 480.769 16.188 481.282 16.188ZM10.57 33.58C11.1673 33.58 11.6853 33.6967 12.124 33.93C12.572 34.154 12.9173 34.4993 13.16 34.966C13.412 35.4327 13.538 36.0207 13.538 36.73V41H12.544V36.828C12.544 36.0533 12.3573 35.47 11.984 35.078C11.62 34.6767 11.102 34.476 10.43 34.476C9.926 34.476 9.48733 34.5833 9.114 34.798C8.75 35.0033 8.46533 35.3067 8.26 35.708C8.064 36.1 7.966 36.576 7.966 37.136V41H6.972V36.828C6.972 36.0533 6.78533 35.47 6.412 35.078C6.03867 34.6767 5.516 34.476 4.844 34.476C4.34933 34.476 3.91533 34.5833 3.542 34.798C3.16867 35.0033 2.87933 35.3067 2.674 35.708C2.478 36.1 2.38 36.576 2.38 37.136V41H1.386V33.65H2.338V35.638L2.184 35.288C2.408 34.756 2.76733 34.3407 3.262 34.042C3.766 33.734 4.35867 33.58 5.04 33.58C5.75867 33.58 6.37 33.762 6.874 34.126C7.378 34.4807 7.70467 35.0173 7.854 35.736L7.462 35.582C7.67667 34.9847 8.05467 34.504 8.596 34.14C9.14667 33.7667 9.80467 33.58 10.57 33.58ZM19.3697 41.07C18.6603 41.07 18.021 40.9113 17.4517 40.594C16.8917 40.2673 16.4483 39.824 16.1217 39.264C15.795 38.6947 15.6317 38.046 15.6317 37.318C15.6317 36.5807 15.795 35.932 16.1217 35.372C16.4483 34.812 16.8917 34.3733 17.4517 34.056C18.0117 33.7387 18.651 33.58 19.3697 33.58C20.0977 33.58 20.7417 33.7387 21.3017 34.056C21.871 34.3733 22.3143 34.812 22.6317 35.372C22.9583 35.932 23.1217 36.5807 23.1217 37.318C23.1217 38.046 22.9583 38.6947 22.6317 39.264C22.3143 39.824 21.871 40.2673 21.3017 40.594C20.7323 40.9113 20.0883 41.07 19.3697 41.07ZM19.3697 40.188C19.9017 40.188 20.373 40.0713 20.7837 39.838C21.1943 39.5953 21.5163 39.2593 21.7497 38.83C21.9923 38.3913 22.1137 37.8873 22.1137 37.318C22.1137 36.7393 21.9923 36.2353 21.7497 35.806C21.5163 35.3767 21.1943 35.0453 20.7837 34.812C20.373 34.5693 19.9063 34.448 19.3837 34.448C18.861 34.448 18.3943 34.5693 17.9837 34.812C17.573 35.0453 17.2463 35.3767 17.0037 35.806C16.761 36.2353 16.6397 36.7393 16.6397 37.318C16.6397 37.8873 16.761 38.3913 17.0037 38.83C17.2463 39.2593 17.573 39.5953 17.9837 39.838C18.3943 40.0713 18.8563 40.188 19.3697 40.188ZM25.291 41V30.612H26.285V41H25.291ZM32.3128 41.07C31.5474 41.07 30.8754 40.9113 30.2968 40.594C29.7181 40.2673 29.2654 39.824 28.9388 39.264C28.6121 38.6947 28.4488 38.046 28.4488 37.318C28.4488 36.59 28.6028 35.946 28.9108 35.386C29.2281 34.826 29.6574 34.3873 30.1988 34.07C30.7494 33.7433 31.3654 33.58 32.0468 33.58C32.7374 33.58 33.3488 33.7387 33.8808 34.056C34.4221 34.364 34.8468 34.8027 35.1548 35.372C35.4628 35.932 35.6168 36.5807 35.6168 37.318C35.6168 37.3647 35.6121 37.416 35.6028 37.472C35.6028 37.5187 35.6028 37.57 35.6028 37.626H29.2048V36.884H35.0708L34.6788 37.178C34.6788 36.646 34.5621 36.1747 34.3288 35.764C34.1048 35.344 33.7968 35.0173 33.4048 34.784C33.0128 34.5507 32.5601 34.434 32.0468 34.434C31.5428 34.434 31.0901 34.5507 30.6888 34.784C30.2874 35.0173 29.9748 35.344 29.7508 35.764C29.5268 36.184 29.4148 36.6647 29.4148 37.206V37.36C29.4148 37.92 29.5361 38.4147 29.7788 38.844C30.0308 39.264 30.3761 39.5953 30.8148 39.838C31.2628 40.0713 31.7714 40.188 32.3408 40.188C32.7888 40.188 33.2041 40.1087 33.5868 39.95C33.9788 39.7913 34.3148 39.5487 34.5948 39.222L35.1548 39.866C34.8281 40.258 34.4174 40.5567 33.9228 40.762C33.4374 40.9673 32.9008 41.07 32.3128 41.07ZM39.754 41.07C39.1473 41.07 38.5733 40.986 38.032 40.818C37.4907 40.6407 37.066 40.4213 36.758 40.16L37.206 39.376C37.5047 39.6 37.8873 39.796 38.354 39.964C38.8207 40.1227 39.3107 40.202 39.824 40.202C40.524 40.202 41.028 40.0947 41.336 39.88C41.644 39.656 41.798 39.362 41.798 38.998C41.798 38.7273 41.7093 38.5173 41.532 38.368C41.364 38.2093 41.14 38.0927 40.86 38.018C40.58 37.934 40.2673 37.864 39.922 37.808C39.5767 37.752 39.2313 37.6867 38.886 37.612C38.55 37.5373 38.242 37.43 37.962 37.29C37.682 37.1407 37.4533 36.94 37.276 36.688C37.108 36.436 37.024 36.1 37.024 35.68C37.024 35.2787 37.136 34.9193 37.36 34.602C37.584 34.2847 37.9107 34.0373 38.34 33.86C38.7787 33.6733 39.3107 33.58 39.936 33.58C40.412 33.58 40.888 33.6453 41.364 33.776C41.84 33.8973 42.232 34.0607 42.54 34.266L42.106 35.064C41.7793 34.84 41.4293 34.6813 41.056 34.588C40.6827 34.4853 40.3093 34.434 39.936 34.434C39.2733 34.434 38.7833 34.5507 38.466 34.784C38.158 35.008 38.004 35.2973 38.004 35.652C38.004 35.932 38.088 36.1513 38.256 36.31C38.4333 36.4687 38.662 36.5947 38.942 36.688C39.2313 36.772 39.544 36.842 39.88 36.898C40.2253 36.954 40.566 37.024 40.902 37.108C41.2473 37.1827 41.56 37.29 41.84 37.43C42.1293 37.5607 42.358 37.752 42.526 38.004C42.7033 38.2467 42.792 38.5687 42.792 38.97C42.792 39.3993 42.6707 39.7727 42.428 40.09C42.1947 40.398 41.8493 40.6407 41.392 40.818C40.944 40.986 40.398 41.07 39.754 41.07ZM47.0799 41.07C46.3893 41.07 45.8573 40.8833 45.4839 40.51C45.1106 40.1367 44.9239 39.6093 44.9239 38.928V32.026H45.9179V38.872C45.9179 39.3013 46.0253 39.6327 46.2399 39.866C46.4639 40.0993 46.7813 40.216 47.1919 40.216C47.6306 40.216 47.9946 40.09 48.2839 39.838L48.6339 40.552C48.4379 40.7293 48.1999 40.86 47.9199 40.944C47.6493 41.028 47.3693 41.07 47.0799 41.07ZM43.6079 34.476V33.65H48.1579V34.476H43.6079ZM50.5834 41V33.65H51.5774V41H50.5834ZM51.0874 32.026C50.8821 32.026 50.7094 31.956 50.5694 31.816C50.4294 31.676 50.3594 31.508 50.3594 31.312C50.3594 31.116 50.4294 30.9527 50.5694 30.822C50.7094 30.682 50.8821 30.612 51.0874 30.612C51.2928 30.612 51.4654 30.6773 51.6054 30.808C51.7454 30.9387 51.8154 31.102 51.8154 31.298C51.8154 31.5033 51.7454 31.676 51.6054 31.816C51.4748 31.956 51.3021 32.026 51.0874 32.026ZM57.6052 41.07C56.8399 41.07 56.1679 40.9113 55.5892 40.594C55.0105 40.2673 54.5579 39.824 54.2312 39.264C53.9045 38.6947 53.7412 38.046 53.7412 37.318C53.7412 36.59 53.8952 35.946 54.2032 35.386C54.5205 34.826 54.9499 34.3873 55.4912 34.07C56.0419 33.7433 56.6579 33.58 57.3392 33.58C58.0299 33.58 58.6412 33.7387 59.1732 34.056C59.7145 34.364 60.1392 34.8027 60.4472 35.372C60.7552 35.932 60.9092 36.5807 60.9092 37.318C60.9092 37.3647 60.9045 37.416 60.8952 37.472C60.8952 37.5187 60.8952 37.57 60.8952 37.626H54.4972V36.884H60.3632L59.9712 37.178C59.9712 36.646 59.8545 36.1747 59.6212 35.764C59.3972 35.344 59.0892 35.0173 58.6972 34.784C58.3052 34.5507 57.8525 34.434 57.3392 34.434C56.8352 34.434 56.3825 34.5507 55.9812 34.784C55.5799 35.0173 55.2672 35.344 55.0432 35.764C54.8192 36.184 54.7072 36.6647 54.7072 37.206V37.36C54.7072 37.92 54.8285 38.4147 55.0712 38.844C55.3232 39.264 55.6685 39.5953 56.1072 39.838C56.5552 40.0713 57.0639 40.188 57.6332 40.188C58.0812 40.188 58.4965 40.1087 58.8792 39.95C59.2712 39.7913 59.6072 39.5487 59.8872 39.222L60.4472 39.866C60.1205 40.258 59.7099 40.5567 59.2152 40.762C58.7299 40.9673 58.1932 41.07 57.6052 41.07ZM68.7665 41L65.5045 33.65H66.5405L69.5365 40.468H69.0465L72.0845 33.65H73.0645L69.7885 41H68.7665ZM77.5213 41.07C76.7559 41.07 76.0839 40.9113 75.5053 40.594C74.9266 40.2673 74.4739 39.824 74.1473 39.264C73.8206 38.6947 73.6573 38.046 73.6573 37.318C73.6573 36.59 73.8113 35.946 74.1193 35.386C74.4366 34.826 74.8659 34.3873 75.4073 34.07C75.9579 33.7433 76.5739 33.58 77.2553 33.58C77.9459 33.58 78.5573 33.7387 79.0893 34.056C79.6306 34.364 80.0553 34.8027 80.3633 35.372C80.6713 35.932 80.8253 36.5807 80.8253 37.318C80.8253 37.3647 80.8206 37.416 80.8113 37.472C80.8113 37.5187 80.8113 37.57 80.8113 37.626H74.4133V36.884H80.2793L79.8873 37.178C79.8873 36.646 79.7706 36.1747 79.5373 35.764C79.3133 35.344 79.0053 35.0173 78.6133 34.784C78.2213 34.5507 77.7686 34.434 77.2553 34.434C76.7513 34.434 76.2986 34.5507 75.8973 34.784C75.4959 35.0173 75.1833 35.344 74.9593 35.764C74.7353 36.184 74.6233 36.6647 74.6233 37.206V37.36C74.6233 37.92 74.7446 38.4147 74.9873 38.844C75.2393 39.264 75.5846 39.5953 76.0233 39.838C76.4713 40.0713 76.9799 40.188 77.5493 40.188C77.9973 40.188 78.4126 40.1087 78.7953 39.95C79.1873 39.7913 79.5233 39.5487 79.8033 39.222L80.3633 39.866C80.0366 40.258 79.6259 40.5567 79.1313 40.762C78.6459 40.9673 78.1093 41.07 77.5213 41.07ZM82.9885 41V30.612H83.9825V41H82.9885ZM86.2863 43.044L86.9023 40.454L87.0143 41.056C86.7996 41.056 86.6176 40.986 86.4683 40.846C86.3283 40.706 86.2583 40.524 86.2583 40.3C86.2583 40.076 86.3283 39.894 86.4683 39.754C86.6176 39.614 86.7949 39.544 87.0003 39.544C87.2149 39.544 87.3876 39.6187 87.5183 39.768C87.6583 39.9173 87.7283 40.0947 87.7283 40.3C87.7283 40.3747 87.7236 40.4493 87.7143 40.524C87.7049 40.5987 87.6863 40.6827 87.6583 40.776C87.6303 40.8693 87.5929 40.9813 87.5463 41.112L86.9583 43.044H86.2863ZM96.7951 41.07C96.0858 41.07 95.4465 40.9113 94.8771 40.594C94.3171 40.2673 93.8738 39.824 93.5471 39.264C93.2205 38.6947 93.0571 38.046 93.0571 37.318C93.0571 36.5807 93.2205 35.932 93.5471 35.372C93.8738 34.812 94.3171 34.3733 94.8771 34.056C95.4371 33.7387 96.0765 33.58 96.7951 33.58C97.5231 33.58 98.1671 33.7387 98.7271 34.056C99.2965 34.3733 99.7398 34.812 100.057 35.372C100.384 35.932 100.547 36.5807 100.547 37.318C100.547 38.046 100.384 38.6947 100.057 39.264C99.7398 39.824 99.2965 40.2673 98.7271 40.594C98.1578 40.9113 97.5138 41.07 96.7951 41.07ZM96.7951 40.188C97.3271 40.188 97.7985 40.0713 98.2091 39.838C98.6198 39.5953 98.9418 39.2593 99.1751 38.83C99.4178 38.3913 99.5391 37.8873 99.5391 37.318C99.5391 36.7393 99.4178 36.2353 99.1751 35.806C98.9418 35.3767 98.6198 35.0453 98.2091 34.812C97.7985 34.5693 97.3318 34.448 96.8091 34.448C96.2865 34.448 95.8198 34.5693 95.4091 34.812C94.9985 35.0453 94.6718 35.3767 94.4291 35.806C94.1865 36.2353 94.0651 36.7393 94.0651 37.318C94.0651 37.8873 94.1865 38.3913 94.4291 38.83C94.6718 39.2593 94.9985 39.5953 95.4091 39.838C95.8198 40.0713 96.2818 40.188 96.7951 40.188ZM102.716 41V33.65H103.668V35.652L103.57 35.302C103.776 34.742 104.121 34.3173 104.606 34.028C105.092 33.7293 105.694 33.58 106.412 33.58V34.546C106.375 34.546 106.338 34.546 106.3 34.546C106.263 34.5367 106.226 34.532 106.188 34.532C105.414 34.532 104.807 34.77 104.368 35.246C103.93 35.7127 103.71 36.38 103.71 37.248V41H102.716ZM112.118 33.58C112.716 33.58 113.238 33.6967 113.686 33.93C114.144 34.154 114.498 34.4993 114.75 34.966C115.012 35.4327 115.142 36.0207 115.142 36.73V41H114.148V36.828C114.148 36.0533 113.952 35.47 113.56 35.078C113.178 34.6767 112.636 34.476 111.936 34.476C111.414 34.476 110.956 34.5833 110.564 34.798C110.182 35.0033 109.883 35.3067 109.668 35.708C109.463 36.1 109.36 36.576 109.36 37.136V41H108.366V33.65H109.318V35.666L109.164 35.288C109.398 34.756 109.771 34.3407 110.284 34.042C110.798 33.734 111.409 33.58 112.118 33.58ZM122.573 41V39.376L122.531 39.11V36.394C122.531 35.7687 122.354 35.288 121.999 34.952C121.654 34.616 121.136 34.448 120.445 34.448C119.969 34.448 119.517 34.5273 119.087 34.686C118.658 34.8447 118.294 35.0547 117.995 35.316L117.547 34.574C117.921 34.2567 118.369 34.014 118.891 33.846C119.414 33.6687 119.965 33.58 120.543 33.58C121.495 33.58 122.228 33.818 122.741 34.294C123.264 34.7607 123.525 35.4747 123.525 36.436V41H122.573ZM120.039 41.07C119.489 41.07 119.008 40.9813 118.597 40.804C118.196 40.6173 117.888 40.3653 117.673 40.048C117.459 39.7213 117.351 39.348 117.351 38.928C117.351 38.5453 117.44 38.2 117.617 37.892C117.804 37.5747 118.103 37.3227 118.513 37.136C118.933 36.94 119.493 36.842 120.193 36.842H122.727V37.584H120.221C119.512 37.584 119.017 37.71 118.737 37.962C118.467 38.214 118.331 38.5267 118.331 38.9C118.331 39.32 118.495 39.656 118.821 39.908C119.148 40.16 119.605 40.286 120.193 40.286C120.753 40.286 121.234 40.16 121.635 39.908C122.046 39.6467 122.345 39.2733 122.531 38.788L122.755 39.474C122.569 39.9593 122.242 40.3467 121.775 40.636C121.318 40.9253 120.739 41.07 120.039 41.07ZM126.365 41V33.65H127.317V35.652L127.219 35.302C127.424 34.742 127.77 34.3173 128.255 34.028C128.74 33.7293 129.342 33.58 130.061 33.58V34.546C130.024 34.546 129.986 34.546 129.949 34.546C129.912 34.5367 129.874 34.532 129.837 34.532C129.062 34.532 128.456 34.77 128.017 35.246C127.578 35.7127 127.359 36.38 127.359 37.248V41H126.365ZM135.068 41.07C134.303 41.07 133.631 40.9113 133.052 40.594C132.474 40.2673 132.021 39.824 131.694 39.264C131.368 38.6947 131.204 38.046 131.204 37.318C131.204 36.59 131.358 35.946 131.666 35.386C131.984 34.826 132.413 34.3873 132.954 34.07C133.505 33.7433 134.121 33.58 134.802 33.58C135.493 33.58 136.104 33.7387 136.636 34.056C137.178 34.364 137.602 34.8027 137.91 35.372C138.218 35.932 138.372 36.5807 138.372 37.318C138.372 37.3647 138.368 37.416 138.358 37.472C138.358 37.5187 138.358 37.57 138.358 37.626H131.96V36.884H137.826L137.434 37.178C137.434 36.646 137.318 36.1747 137.084 35.764C136.86 35.344 136.552 35.0173 136.16 34.784C135.768 34.5507 135.316 34.434 134.802 34.434C134.298 34.434 133.846 34.5507 133.444 34.784C133.043 35.0173 132.73 35.344 132.506 35.764C132.282 36.184 132.17 36.6647 132.17 37.206V37.36C132.17 37.92 132.292 38.4147 132.534 38.844C132.786 39.264 133.132 39.5953 133.57 39.838C134.018 40.0713 134.527 40.188 135.096 40.188C135.544 40.188 135.96 40.1087 136.342 39.95C136.734 39.7913 137.07 39.5487 137.35 39.222L137.91 39.866C137.584 40.258 137.173 40.5567 136.678 40.762C136.193 40.9673 135.656 41.07 135.068 41.07ZM148.092 33.58C148.689 33.58 149.212 33.6967 149.66 33.93C150.117 34.154 150.472 34.4993 150.724 34.966C150.985 35.4327 151.116 36.0207 151.116 36.73V41H150.122V36.828C150.122 36.0533 149.926 35.47 149.534 35.078C149.151 34.6767 148.61 34.476 147.91 34.476C147.387 34.476 146.93 34.5833 146.538 34.798C146.155 35.0033 145.856 35.3067 145.642 35.708C145.436 36.1 145.334 36.576 145.334 37.136V41H144.34V33.65H145.292V35.666L145.138 35.288C145.371 34.756 145.744 34.3407 146.258 34.042C146.771 33.734 147.382 33.58 148.092 33.58ZM156.937 41.07C156.227 41.07 155.588 40.9113 155.019 40.594C154.459 40.2673 154.015 39.824 153.689 39.264C153.362 38.6947 153.199 38.046 153.199 37.318C153.199 36.5807 153.362 35.932 153.689 35.372C154.015 34.812 154.459 34.3733 155.019 34.056C155.579 33.7387 156.218 33.58 156.937 33.58C157.665 33.58 158.309 33.7387 158.869 34.056C159.438 34.3733 159.881 34.812 160.199 35.372C160.525 35.932 160.689 36.5807 160.689 37.318C160.689 38.046 160.525 38.6947 160.199 39.264C159.881 39.824 159.438 40.2673 158.869 40.594C158.299 40.9113 157.655 41.07 156.937 41.07ZM156.937 40.188C157.469 40.188 157.94 40.0713 158.351 39.838C158.761 39.5953 159.083 39.2593 159.317 38.83C159.559 38.3913 159.681 37.8873 159.681 37.318C159.681 36.7393 159.559 36.2353 159.317 35.806C159.083 35.3767 158.761 35.0453 158.351 34.812C157.94 34.5693 157.473 34.448 156.951 34.448C156.428 34.448 155.961 34.5693 155.551 34.812C155.14 35.0453 154.813 35.3767 154.571 35.806C154.328 36.2353 154.207 36.7393 154.207 37.318C154.207 37.8873 154.328 38.3913 154.571 38.83C154.813 39.2593 155.14 39.5953 155.551 39.838C155.961 40.0713 156.423 40.188 156.937 40.188ZM166.61 33.58C167.207 33.58 167.73 33.6967 168.178 33.93C168.635 34.154 168.99 34.4993 169.242 34.966C169.503 35.4327 169.634 36.0207 169.634 36.73V41H168.64V36.828C168.64 36.0533 168.444 35.47 168.052 35.078C167.669 34.6767 167.128 34.476 166.428 34.476C165.905 34.476 165.448 34.5833 165.056 34.798C164.673 35.0033 164.375 35.3067 164.16 35.708C163.955 36.1 163.852 36.576 163.852 37.136V41H162.858V33.65H163.81V35.666L163.656 35.288C163.889 34.756 164.263 34.3407 164.776 34.042C165.289 33.734 165.901 33.58 166.61 33.58ZM176.263 41V33.65H177.257V41H176.263ZM176.767 32.026C176.562 32.026 176.389 31.956 176.249 31.816C176.109 31.676 176.039 31.508 176.039 31.312C176.039 31.116 176.109 30.9527 176.249 30.822C176.389 30.682 176.562 30.612 176.767 30.612C176.972 30.612 177.145 30.6773 177.285 30.808C177.425 30.9387 177.495 31.102 177.495 31.298C177.495 31.5033 177.425 31.676 177.285 31.816C177.154 31.956 176.982 32.026 176.767 32.026ZM183.089 41.07C182.389 41.07 181.759 40.9113 181.199 40.594C180.648 40.2767 180.214 39.838 179.897 39.278C179.579 38.7087 179.421 38.0553 179.421 37.318C179.421 36.5713 179.579 35.918 179.897 35.358C180.214 34.798 180.648 34.364 181.199 34.056C181.759 33.7387 182.389 33.58 183.089 33.58C183.733 33.58 184.307 33.7247 184.811 34.014C185.324 34.3033 185.73 34.728 186.029 35.288C186.337 35.8387 186.491 36.5153 186.491 37.318C186.491 38.1113 186.341 38.788 186.043 39.348C185.744 39.908 185.338 40.3373 184.825 40.636C184.321 40.9253 183.742 41.07 183.089 41.07ZM183.159 40.188C183.681 40.188 184.148 40.0713 184.559 39.838C184.979 39.5953 185.305 39.2593 185.539 38.83C185.781 38.3913 185.903 37.8873 185.903 37.318C185.903 36.7393 185.781 36.2353 185.539 35.806C185.305 35.3767 184.979 35.0453 184.559 34.812C184.148 34.5693 183.681 34.448 183.159 34.448C182.645 34.448 182.183 34.5693 181.773 34.812C181.362 35.0453 181.035 35.3767 180.793 35.806C180.55 36.2353 180.429 36.7393 180.429 37.318C180.429 37.8873 180.55 38.3913 180.793 38.83C181.035 39.2593 181.362 39.5953 181.773 39.838C182.183 40.0713 182.645 40.188 183.159 40.188ZM185.931 41V38.788L186.029 37.304L185.889 35.82V30.612H186.883V41H185.931ZM197.389 41.07C196.745 41.07 196.166 40.9253 195.653 40.636C195.14 40.3373 194.734 39.908 194.435 39.348C194.136 38.788 193.987 38.1113 193.987 37.318C193.987 36.5153 194.136 35.8387 194.435 35.288C194.743 34.728 195.154 34.3033 195.667 34.014C196.18 33.7247 196.754 33.58 197.389 33.58C198.089 33.58 198.714 33.7387 199.265 34.056C199.825 34.364 200.264 34.798 200.581 35.358C200.898 35.918 201.057 36.5713 201.057 37.318C201.057 38.0553 200.898 38.7087 200.581 39.278C200.264 39.838 199.825 40.2767 199.265 40.594C198.714 40.9113 198.089 41.07 197.389 41.07ZM193.595 41V30.612H194.589V35.82L194.449 37.304L194.547 38.788V41H193.595ZM197.319 40.188C197.842 40.188 198.308 40.0713 198.719 39.838C199.13 39.5953 199.456 39.2593 199.699 38.83C199.942 38.3913 200.063 37.8873 200.063 37.318C200.063 36.7393 199.942 36.2353 199.699 35.806C199.456 35.3767 199.13 35.0453 198.719 34.812C198.308 34.5693 197.842 34.448 197.319 34.448C196.796 34.448 196.325 34.5693 195.905 34.812C195.494 35.0453 195.168 35.3767 194.925 35.806C194.692 36.2353 194.575 36.7393 194.575 37.318C194.575 37.8873 194.692 38.3913 194.925 38.83C195.168 39.2593 195.494 39.5953 195.905 39.838C196.325 40.0713 196.796 40.188 197.319 40.188ZM203.223 41V30.612H204.217V41H203.223ZM211.729 41V39.376L211.687 39.11V36.394C211.687 35.7687 211.51 35.288 211.155 34.952C210.81 34.616 210.292 34.448 209.601 34.448C209.125 34.448 208.672 34.5273 208.243 34.686C207.814 34.8447 207.45 35.0547 207.151 35.316L206.703 34.574C207.076 34.2567 207.524 34.014 208.047 33.846C208.57 33.6687 209.12 33.58 209.699 33.58C210.651 33.58 211.384 33.818 211.897 34.294C212.42 34.7607 212.681 35.4747 212.681 36.436V41H211.729ZM209.195 41.07C208.644 41.07 208.164 40.9813 207.753 40.804C207.352 40.6173 207.044 40.3653 206.829 40.048C206.614 39.7213 206.507 39.348 206.507 38.928C206.507 38.5453 206.596 38.2 206.773 37.892C206.96 37.5747 207.258 37.3227 207.669 37.136C208.089 36.94 208.649 36.842 209.349 36.842H211.883V37.584H209.377C208.668 37.584 208.173 37.71 207.893 37.962C207.622 38.214 207.487 38.5267 207.487 38.9C207.487 39.32 207.65 39.656 207.977 39.908C208.304 40.16 208.761 40.286 209.349 40.286C209.909 40.286 210.39 40.16 210.791 39.908C211.202 39.6467 211.5 39.2733 211.687 38.788L211.911 39.474C211.724 39.9593 211.398 40.3467 210.931 40.636C210.474 40.9253 209.895 41.07 209.195 41.07ZM219.273 33.58C219.87 33.58 220.393 33.6967 220.841 33.93C221.298 34.154 221.653 34.4993 221.905 34.966C222.166 35.4327 222.297 36.0207 222.297 36.73V41H221.303V36.828C221.303 36.0533 221.107 35.47 220.715 35.078C220.332 34.6767 219.791 34.476 219.091 34.476C218.568 34.476 218.111 34.5833 217.719 34.798C217.336 35.0033 217.038 35.3067 216.823 35.708C216.618 36.1 216.515 36.576 216.515 37.136V41H215.521V33.65H216.473V35.666L216.319 35.288C216.552 34.756 216.926 34.3407 217.439 34.042C217.952 33.734 218.564 33.58 219.273 33.58ZM228.048 41.07C227.348 41.07 226.718 40.9113 226.158 40.594C225.607 40.2767 225.173 39.838 224.856 39.278C224.539 38.7087 224.38 38.0553 224.38 37.318C224.38 36.5713 224.539 35.918 224.856 35.358C225.173 34.798 225.607 34.364 226.158 34.056C226.718 33.7387 227.348 33.58 228.048 33.58C228.692 33.58 229.266 33.7247 229.77 34.014C230.283 34.3033 230.689 34.728 230.988 35.288C231.296 35.8387 231.45 36.5153 231.45 37.318C231.45 38.1113 231.301 38.788 231.002 39.348C230.703 39.908 230.297 40.3373 229.784 40.636C229.28 40.9253 228.701 41.07 228.048 41.07ZM228.118 40.188C228.641 40.188 229.107 40.0713 229.518 39.838C229.938 39.5953 230.265 39.2593 230.498 38.83C230.741 38.3913 230.862 37.8873 230.862 37.318C230.862 36.7393 230.741 36.2353 230.498 35.806C230.265 35.3767 229.938 35.0453 229.518 34.812C229.107 34.5693 228.641 34.448 228.118 34.448C227.605 34.448 227.143 34.5693 226.732 34.812C226.321 35.0453 225.995 35.3767 225.752 35.806C225.509 36.2353 225.388 36.7393 225.388 37.318C225.388 37.8873 225.509 38.3913 225.752 38.83C225.995 39.2593 226.321 39.5953 226.732 39.838C227.143 40.0713 227.605 40.188 228.118 40.188ZM230.89 41V38.788L230.988 37.304L230.848 35.82V30.612H231.842V41H230.89ZM234.75 41V33.65H235.744V41H234.75ZM235.254 32.026C235.049 32.026 234.876 31.956 234.736 31.816C234.596 31.676 234.526 31.508 234.526 31.312C234.526 31.116 234.596 30.9527 234.736 30.822C234.876 30.682 235.049 30.612 235.254 30.612C235.459 30.612 235.632 30.6773 235.772 30.808C235.912 30.9387 235.982 31.102 235.982 31.298C235.982 31.5033 235.912 31.676 235.772 31.816C235.641 31.956 235.469 32.026 235.254 32.026ZM240.974 41.07C240.283 41.07 239.751 40.8833 239.378 40.51C239.005 40.1367 238.818 39.6093 238.818 38.928V32.026H239.812V38.872C239.812 39.3013 239.919 39.6327 240.134 39.866C240.358 40.0993 240.675 40.216 241.086 40.216C241.525 40.216 241.889 40.09 242.178 39.838L242.528 40.552C242.332 40.7293 242.094 40.86 241.814 40.944C241.543 41.028 241.263 41.07 240.974 41.07ZM237.502 34.476V33.65H242.052V34.476H237.502ZM252.033 33.58C252.631 33.58 253.153 33.6967 253.601 33.93C254.059 34.154 254.413 34.4993 254.665 34.966C254.927 35.4327 255.057 36.0207 255.057 36.73V41H254.063V36.828C254.063 36.0533 253.867 35.47 253.475 35.078C253.093 34.6767 252.551 34.476 251.851 34.476C251.329 34.476 250.871 34.5833 250.479 34.798C250.097 35.0033 249.798 35.3067 249.583 35.708C249.378 36.1 249.275 36.576 249.275 37.136V41H248.281V33.65H249.233V35.666L249.079 35.288C249.313 34.756 249.686 34.3407 250.199 34.042C250.713 33.734 251.324 33.58 252.033 33.58ZM261.004 41.07C260.239 41.07 259.567 40.9113 258.988 40.594C258.41 40.2673 257.957 39.824 257.63 39.264C257.304 38.6947 257.14 38.046 257.14 37.318C257.14 36.59 257.294 35.946 257.602 35.386C257.92 34.826 258.349 34.3873 258.89 34.07C259.441 33.7433 260.057 33.58 260.738 33.58C261.429 33.58 262.04 33.7387 262.572 34.056C263.114 34.364 263.538 34.8027 263.846 35.372C264.154 35.932 264.308 36.5807 264.308 37.318C264.308 37.3647 264.304 37.416 264.294 37.472C264.294 37.5187 264.294 37.57 264.294 37.626H257.896V36.884H263.762L263.37 37.178C263.37 36.646 263.254 36.1747 263.02 35.764C262.796 35.344 262.488 35.0173 262.096 34.784C261.704 34.5507 261.252 34.434 260.738 34.434C260.234 34.434 259.782 34.5507 259.38 34.784C258.979 35.0173 258.666 35.344 258.442 35.764C258.218 36.184 258.106 36.6647 258.106 37.206V37.36C258.106 37.92 258.228 38.4147 258.47 38.844C258.722 39.264 259.068 39.5953 259.506 39.838C259.954 40.0713 260.463 40.188 261.032 40.188C261.48 40.188 261.896 40.1087 262.278 39.95C262.67 39.7913 263.006 39.5487 263.286 39.222L263.846 39.866C263.52 40.258 263.109 40.5567 262.614 40.762C262.129 40.9673 261.592 41.07 261.004 41.07ZM268.796 41.07C268.105 41.07 267.573 40.8833 267.2 40.51C266.826 40.1367 266.64 39.6093 266.64 38.928V32.026H267.634V38.872C267.634 39.3013 267.741 39.6327 267.956 39.866C268.18 40.0993 268.497 40.216 268.908 40.216C269.346 40.216 269.71 40.09 270 39.838L270.35 40.552C270.154 40.7293 269.916 40.86 269.636 40.944C269.365 41.028 269.085 41.07 268.796 41.07ZM265.324 34.476V33.65H269.874V34.476H265.324ZM275.337 41.07C274.712 41.07 274.166 40.9533 273.699 40.72C273.232 40.4867 272.868 40.1367 272.607 39.67C272.355 39.2033 272.229 38.62 272.229 37.92V33.65H273.223V37.808C273.223 38.592 273.414 39.1847 273.797 39.586C274.189 39.978 274.735 40.174 275.435 40.174C275.948 40.174 276.392 40.0713 276.765 39.866C277.148 39.6513 277.437 39.3433 277.633 38.942C277.838 38.5407 277.941 38.06 277.941 37.5V33.65H278.935V41H277.983V38.984L278.137 39.348C277.904 39.8893 277.54 40.314 277.045 40.622C276.56 40.9207 275.99 41.07 275.337 41.07ZM283.819 41.07C283.213 41.07 282.639 40.986 282.097 40.818C281.556 40.6407 281.131 40.4213 280.823 40.16L281.271 39.376C281.57 39.6 281.953 39.796 282.419 39.964C282.886 40.1227 283.376 40.202 283.889 40.202C284.589 40.202 285.093 40.0947 285.401 39.88C285.709 39.656 285.863 39.362 285.863 38.998C285.863 38.7273 285.775 38.5173 285.597 38.368C285.429 38.2093 285.205 38.0927 284.925 38.018C284.645 37.934 284.333 37.864 283.987 37.808C283.642 37.752 283.297 37.6867 282.951 37.612C282.615 37.5373 282.307 37.43 282.027 37.29C281.747 37.1407 281.519 36.94 281.341 36.688C281.173 36.436 281.089 36.1 281.089 35.68C281.089 35.2787 281.201 34.9193 281.425 34.602C281.649 34.2847 281.976 34.0373 282.405 33.86C282.844 33.6733 283.376 33.58 284.001 33.58C284.477 33.58 284.953 33.6453 285.429 33.776C285.905 33.8973 286.297 34.0607 286.605 34.266L286.171 35.064C285.845 34.84 285.495 34.6813 285.121 34.588C284.748 34.4853 284.375 34.434 284.001 34.434C283.339 34.434 282.849 34.5507 282.531 34.784C282.223 35.008 282.069 35.2973 282.069 35.652C282.069 35.932 282.153 36.1513 282.321 36.31C282.499 36.4687 282.727 36.5947 283.007 36.688C283.297 36.772 283.609 36.842 283.945 36.898C284.291 36.954 284.631 37.024 284.967 37.108C285.313 37.1827 285.625 37.29 285.905 37.43C286.195 37.5607 286.423 37.752 286.591 38.004C286.769 38.2467 286.857 38.5687 286.857 38.97C286.857 39.3993 286.736 39.7727 286.493 40.09C286.26 40.398 285.915 40.6407 285.457 40.818C285.009 40.986 284.463 41.07 283.819 41.07ZM288.919 41.07C288.714 41.07 288.537 40.9953 288.387 40.846C288.247 40.6967 288.177 40.5147 288.177 40.3C288.177 40.076 288.247 39.894 288.387 39.754C288.537 39.614 288.714 39.544 288.919 39.544C289.125 39.544 289.297 39.614 289.437 39.754C289.587 39.894 289.661 40.076 289.661 40.3C289.661 40.5147 289.587 40.6967 289.437 40.846C289.297 40.9953 289.125 41.07 288.919 41.07Z" fill="black"/>
</svg>
