<svg width="300" height="45" viewBox="0 0 300 45" fill="none" xmlns="http://www.w3.org/2000/svg">
<g filter="url(#filter0_d_2_34)">
<path d="M21.366 36.46C18.8513 36.46 16.536 36.0613 14.42 35.264C12.3347 34.436 10.51 33.286 8.946 31.814C7.382 30.3113 6.17067 28.548 5.312 26.524C4.45333 24.5 4.024 22.292 4.024 19.9C4.024 17.508 4.45333 15.3 5.312 13.276C6.17067 11.252 7.382 9.504 8.946 8.032C10.5407 6.52933 12.396 5.37933 14.512 4.582C16.628 3.754 18.9433 3.34 21.458 3.34C24.1873 3.34 26.6407 3.78466 28.818 4.674C31.026 5.56333 32.8813 6.86667 34.384 8.584L30.612 12.264C29.3547 11.0067 27.99 10.0867 26.518 9.504C25.0767 8.89067 23.482 8.584 21.734 8.584C20.0473 8.584 18.4833 8.86 17.042 9.412C15.6007 9.964 14.3587 10.746 13.316 11.758C12.2733 12.77 11.4607 13.966 10.878 15.346C10.326 16.726 10.05 18.244 10.05 19.9C10.05 21.5253 10.326 23.028 10.878 24.408C11.4607 25.788 12.2733 26.9993 13.316 28.042C14.3587 29.054 15.5853 29.836 16.996 30.388C18.4067 30.94 19.9707 31.216 21.688 31.216C23.2827 31.216 24.816 30.9707 26.288 30.48C27.7907 29.9587 29.2167 29.1 30.566 27.904L33.97 32.366C32.2833 33.7153 30.3207 34.7427 28.082 35.448C25.874 36.1227 23.6353 36.46 21.366 36.46ZM28.312 31.584V19.532H33.97V32.366L28.312 31.584ZM53.3112 36.322C50.5819 36.322 48.1899 35.7853 46.1352 34.712C44.1112 33.608 42.5319 32.1053 41.3972 30.204C40.2932 28.3027 39.7412 26.1407 39.7412 23.718C39.7412 21.2647 40.2779 19.1027 41.3512 17.232C42.4552 15.3307 43.9579 13.8433 45.8592 12.77C47.7912 11.6967 49.9839 11.16 52.4372 11.16C54.8292 11.16 56.9605 11.6813 58.8312 12.724C60.7019 13.7667 62.1739 15.2387 63.2472 17.14C64.3205 19.0413 64.8572 21.28 64.8572 23.856C64.8572 24.1013 64.8419 24.3773 64.8112 24.684C64.8112 24.9907 64.7959 25.282 64.7652 25.558H44.2952V21.74H61.7292L59.4752 22.936C59.5059 21.5253 59.2145 20.2833 58.6012 19.21C57.9879 18.1367 57.1445 17.2933 56.0712 16.68C55.0285 16.0667 53.8172 15.76 52.4372 15.76C51.0265 15.76 49.7845 16.0667 48.7112 16.68C47.6685 17.2933 46.8405 18.152 46.2272 19.256C45.6445 20.3293 45.3532 21.602 45.3532 23.074V23.994C45.3532 25.466 45.6905 26.7693 46.3652 27.904C47.0399 29.0387 47.9905 29.9127 49.2172 30.526C50.4439 31.1393 51.8545 31.446 53.4492 31.446C54.8292 31.446 56.0712 31.2313 57.1752 30.802C58.2792 30.3727 59.2605 29.698 60.1192 28.778L63.2012 32.32C62.0972 33.608 60.7019 34.6047 59.0152 35.31C57.3592 35.9847 55.4579 36.322 53.3112 36.322ZM80.0864 36.322C77.3878 36.322 75.3024 35.632 73.8304 34.252C72.3584 32.8413 71.6224 30.7713 71.6224 28.042V6.008H77.3724V27.904C77.3724 29.0693 77.6638 29.974 78.2464 30.618C78.8598 31.262 79.7031 31.584 80.7764 31.584C82.0644 31.584 83.1378 31.2467 83.9964 30.572L85.6064 34.666C84.9318 35.218 84.1038 35.632 83.1224 35.908C82.1411 36.184 81.1291 36.322 80.0864 36.322ZM67.5744 16.22V11.62H83.9504V16.22H67.5744ZM103.969 36V11.436H109.719V36H103.969ZM106.867 7.388C105.794 7.388 104.905 7.05066 104.199 6.376C103.525 5.70133 103.187 4.88867 103.187 3.938C103.187 2.95667 103.525 2.144 104.199 1.5C104.905 0.825332 105.794 0.487999 106.867 0.487999C107.941 0.487999 108.815 0.809999 109.489 1.454C110.195 2.06733 110.547 2.84933 110.547 3.8C110.547 4.812 110.21 5.67066 109.535 6.376C108.861 7.05066 107.971 7.388 106.867 7.388ZM131.664 11.16C133.627 11.16 135.375 11.5433 136.908 12.31C138.472 13.0767 139.699 14.2573 140.588 15.852C141.478 17.416 141.922 19.44 141.922 21.924V36H136.172V22.66C136.172 20.4827 135.651 18.8573 134.608 17.784C133.596 16.7107 132.17 16.174 130.33 16.174C128.981 16.174 127.785 16.45 126.742 17.002C125.7 17.554 124.887 18.382 124.304 19.486C123.752 20.5593 123.476 21.924 123.476 23.58V36H117.726V11.436H123.2V18.06L122.234 16.036C123.093 14.472 124.335 13.276 125.96 12.448C127.616 11.5893 129.518 11.16 131.664 11.16Z" fill="black"/>
<path d="M172.095 36.322C169.397 36.322 167.311 35.632 165.839 34.252C164.367 32.8413 163.631 30.7713 163.631 28.042V6.008H169.381V27.904C169.381 29.0693 169.673 29.974 170.255 30.618C170.869 31.262 171.712 31.584 172.785 31.584C174.073 31.584 175.147 31.2467 176.005 30.572L177.615 34.666C176.941 35.218 176.113 35.632 175.131 35.908C174.15 36.184 173.138 36.322 172.095 36.322ZM159.583 16.22V11.62H175.959V16.22H159.583ZM193.037 36.322C190.522 36.322 188.284 35.7853 186.321 34.712C184.358 33.608 182.81 32.1053 181.675 30.204C180.54 28.3027 179.973 26.1407 179.973 23.718C179.973 21.2647 180.54 19.1027 181.675 17.232C182.81 15.3307 184.358 13.8433 186.321 12.77C188.284 11.6967 190.522 11.16 193.037 11.16C195.582 11.16 197.836 11.6967 199.799 12.77C201.792 13.8433 203.341 15.3153 204.445 17.186C205.58 19.0567 206.147 21.234 206.147 23.718C206.147 26.1407 205.58 28.3027 204.445 30.204C203.341 32.1053 201.792 33.608 199.799 34.712C197.836 35.7853 195.582 36.322 193.037 36.322ZM193.037 31.4C194.448 31.4 195.705 31.0933 196.809 30.48C197.913 29.8667 198.772 28.9773 199.385 27.812C200.029 26.6467 200.351 25.282 200.351 23.718C200.351 22.1233 200.029 20.7587 199.385 19.624C198.772 18.4587 197.913 17.5693 196.809 16.956C195.705 16.3427 194.463 16.036 193.083 16.036C191.672 16.036 190.415 16.3427 189.311 16.956C188.238 17.5693 187.379 18.4587 186.735 19.624C186.091 20.7587 185.769 22.1233 185.769 23.718C185.769 25.282 186.091 26.6467 186.735 27.812C187.379 28.9773 188.238 29.8667 189.311 30.48C190.415 31.0933 191.657 31.4 193.037 31.4ZM222.501 36.322C220.416 36.322 218.576 35.9387 216.981 35.172C215.387 34.3747 214.145 33.1787 213.255 31.584C212.366 29.9587 211.921 27.9193 211.921 25.466V11.436H217.671V24.684C217.671 26.892 218.162 28.548 219.143 29.652C220.155 30.7253 221.581 31.262 223.421 31.262C224.771 31.262 225.936 30.986 226.917 30.434C227.929 29.882 228.711 29.054 229.263 27.95C229.846 26.846 230.137 25.4813 230.137 23.856V11.436H235.887V36H230.413V29.376L231.379 31.4C230.551 32.9947 229.34 34.2213 227.745 35.08C226.151 35.908 224.403 36.322 222.501 36.322ZM255.146 36.322C252.57 36.322 250.27 35.7853 248.246 34.712C246.253 33.608 244.689 32.1053 243.554 30.204C242.419 28.3027 241.852 26.1407 241.852 23.718C241.852 21.2647 242.419 19.1027 243.554 17.232C244.689 15.3307 246.253 13.8433 248.246 12.77C250.27 11.6967 252.57 11.16 255.146 11.16C257.538 11.16 259.639 11.6507 261.448 12.632C263.288 13.5827 264.683 14.9933 265.634 16.864L261.218 19.44C260.482 18.2747 259.577 17.416 258.504 16.864C257.461 16.312 256.327 16.036 255.1 16.036C253.689 16.036 252.417 16.3427 251.282 16.956C250.147 17.5693 249.258 18.4587 248.614 19.624C247.97 20.7587 247.648 22.1233 247.648 23.718C247.648 25.3127 247.97 26.6927 248.614 27.858C249.258 28.9927 250.147 29.8667 251.282 30.48C252.417 31.0933 253.689 31.4 255.1 31.4C256.327 31.4 257.461 31.124 258.504 30.572C259.577 30.02 260.482 29.1613 261.218 27.996L265.634 30.572C264.683 32.412 263.288 33.838 261.448 34.85C259.639 35.8313 257.538 36.322 255.146 36.322ZM284.778 11.16C286.74 11.16 288.488 11.5433 290.022 12.31C291.586 13.0767 292.812 14.2573 293.702 15.852C294.591 17.416 295.036 19.44 295.036 21.924V36H289.286V22.66C289.286 20.4827 288.764 18.8573 287.722 17.784C286.71 16.7107 285.284 16.174 283.444 16.174C282.094 16.174 280.898 16.45 279.856 17.002C278.813 17.554 278 18.382 277.418 19.486C276.866 20.5593 276.59 21.924 276.59 23.58V36H270.84V1.868H276.59V18.06L275.348 16.036C276.206 14.472 277.448 13.276 279.074 12.448C280.73 11.5893 282.631 11.16 284.778 11.16Z" fill="#6DE1C2"/>
</g>
<defs>
<filter id="filter0_d_2_34" x="0.0240479" y="0.488007" width="299.012" height="43.972" filterUnits="userSpaceOnUse" color-interpolation-filters="sRGB">
<feFlood flood-opacity="0" result="BackgroundImageFix"/>
<feColorMatrix in="SourceAlpha" type="matrix" values="0 0 0 0 0 0 0 0 0 0 0 0 0 0 0 0 0 0 127 0" result="hardAlpha"/>
<feOffset dy="4"/>
<feGaussianBlur stdDeviation="2"/>
<feComposite in2="hardAlpha" operator="out"/>
<feColorMatrix type="matrix" values="0 0 0 0 0 0 0 0 0 0 0 0 0 0 0 0 0 0 0.25 0"/>
<feBlend mode="normal" in2="BackgroundImageFix" result="effect1_dropShadow_2_34"/>
<feBlend mode="normal" in="SourceGraphic" in2="effect1_dropShadow_2_34" result="shape"/>
</filter>
</defs>
</svg>
