<svg width="96" height="17" viewBox="0 0 96 17" fill="none" xmlns="http://www.w3.org/2000/svg">
<path d="M7.04944 3.34317C7.34975 2.42387 8.65026 2.42387 8.95057 3.34317L9.21284 4.14603C9.61588 5.3798 10.7666 6.21446 12.0645 6.21446H12.9089C13.8789 6.21446 14.2808 7.45682 13.4946 8.02498L12.8301 8.50517C11.7729 9.26909 11.3305 10.6285 11.7355 11.8683L11.9902 12.6478C12.2908 13.5681 11.2386 14.3359 10.4539 13.7688L9.75714 13.2653C8.70831 12.5074 7.29169 12.5074 6.24287 13.2653L5.54613 13.7688C4.76136 14.3359 3.70919 13.5681 4.00985 12.6478L4.26449 11.8683C4.66949 10.6285 4.22706 9.26909 3.16993 8.50517L2.50543 8.02498C1.7192 7.45682 2.12111 6.21446 3.09114 6.21446H3.93546C5.23339 6.21446 6.38412 5.3798 6.78716 4.14604L7.04944 3.34317Z" fill="#5B616E"/>
<path d="M27.0494 3.34317C27.3497 2.42387 28.6503 2.42387 28.9506 3.34317L29.2128 4.14603C29.6159 5.3798 30.7666 6.21446 32.0645 6.21446H32.9089C33.8789 6.21446 34.2808 7.45682 33.4946 8.02498L32.8301 8.50517C31.7729 9.26909 31.3305 10.6285 31.7355 11.8683L31.9902 12.6478C32.2908 13.5681 31.2386 14.3359 30.4539 13.7688L29.7571 13.2653C28.7083 12.5074 27.2917 12.5074 26.2429 13.2653L25.5461 13.7688C24.7614 14.3359 23.7092 13.5681 24.0098 12.6478L24.2645 11.8683C24.6695 10.6285 24.2271 9.26909 23.1699 8.50517L22.5054 8.02498C21.7192 7.45682 22.1211 6.21446 23.0911 6.21446H23.9355C25.2334 6.21446 26.3841 5.3798 26.7872 4.14604L27.0494 3.34317Z" fill="#5B616E"/>
<path d="M47.0494 3.34317C47.3497 2.42387 48.6503 2.42387 48.9506 3.34317L49.2128 4.14603C49.6159 5.3798 50.7666 6.21446 52.0645 6.21446H52.9089C53.8789 6.21446 54.2808 7.45682 53.4946 8.02498L52.8301 8.50517C51.7729 9.26909 51.3305 10.6285 51.7355 11.8683L51.9902 12.6478C52.2908 13.5681 51.2386 14.3359 50.4539 13.7688L49.7571 13.2653C48.7083 12.5074 47.2917 12.5074 46.2429 13.2653L45.5461 13.7688C44.7614 14.3359 43.7092 13.5681 44.0098 12.6478L44.2645 11.8683C44.6695 10.6285 44.2271 9.26909 43.1699 8.50517L42.5054 8.02498C41.7192 7.45682 42.1211 6.21446 43.0911 6.21446H43.9355C45.2334 6.21446 46.3841 5.3798 46.7872 4.14604L47.0494 3.34317Z" fill="#5B616E"/>
<path d="M67.0494 3.34317C67.3497 2.42387 68.6503 2.42387 68.9506 3.34317L69.2128 4.14603C69.6159 5.3798 70.7666 6.21446 72.0645 6.21446H72.9089C73.8789 6.21446 74.2808 7.45682 73.4946 8.02498L72.8301 8.50517C71.7729 9.26909 71.3305 10.6285 71.7355 11.8683L71.9902 12.6478C72.2908 13.5681 71.2386 14.3359 70.4539 13.7688L69.7571 13.2653C68.7083 12.5074 67.2917 12.5074 66.2429 13.2653L65.5461 13.7688C64.7614 14.3359 63.7092 13.5681 64.0098 12.6478L64.2645 11.8683C64.6695 10.6285 64.2271 9.26909 63.1699 8.50517L62.5054 8.02498C61.7192 7.45682 62.1211 6.21446 63.0911 6.21446H63.9355C65.2334 6.21446 66.3841 5.3798 66.7872 4.14604L67.0494 3.34317Z" fill="#5B616E"/>
<path d="M87.0494 3.34317C87.3497 2.42387 88.6503 2.42387 88.9506 3.34317L89.2128 4.14603C89.6159 5.3798 90.7666 6.21446 92.0645 6.21446H92.9089C93.8789 6.21446 94.2808 7.45682 93.4946 8.02498L92.8301 8.50517C91.7729 9.26909 91.3305 10.6285 91.7355 11.8683L91.9902 12.6478C92.2908 13.5681 91.2386 14.3359 90.4539 13.7688L89.7571 13.2653C88.7083 12.5074 87.2917 12.5074 86.2429 13.2653L85.5461 13.7688C84.7614 14.3359 83.7092 13.5681 84.0098 12.6478L84.2645 11.8683C84.6695 10.6285 84.2271 9.26909 83.1699 8.50517L82.5054 8.02498C81.7192 7.45682 82.1211 6.21446 83.0911 6.21446H83.9355C85.2334 6.21446 86.3841 5.3798 86.7872 4.14604L87.0494 3.34317Z" fill="#D8DBDF"/>
</svg>
